<?xml version="1.0" encoding="UTF-8" standalone="no"?><svg xmlns="http://www.w3.org/2000/svg" xmlns:xlink="http://www.w3.org/1999/xlink" contentStyleType="text/css" height="626px" preserveAspectRatio="none" style="width:993px;height:626px;background:#FFFFFF;" version="1.1" viewBox="0 0 993 626" width="993px" zoomAndPan="magnify"><defs/><g><rect fill="#FFFFFF" height="498.8842" style="stroke:#181818;stroke-width:1.0;" width="10" x="56" y="66.0679"/><rect fill="#FFFFFF" height="498.8842" style="stroke:#181818;stroke-width:1.0;" width="10" x="211" y="66.0679"/><rect fill="#FFFFFF" height="498.8842" style="stroke:#181818;stroke-width:1.0;" width="10" x="573" y="66.0679"/><rect fill="#FFFFFF" height="498.8842" style="stroke:#181818;stroke-width:1.0;" width="10" x="901" y="66.0679"/><rect fill="none" height="420.4722" style="stroke:#000000;stroke-width:1.5;" width="870.5" x="117" y="104.7739"/><line style="stroke:#181818;stroke-width:0.5;stroke-dasharray:5.0,5.0;" x1="61" x2="61" y1="56.0679" y2="573.9521"/><line style="stroke:#181818;stroke-width:0.5;stroke-dasharray:5.0,5.0;" x1="216" x2="216" y1="56.0679" y2="573.9521"/><line style="stroke:#181818;stroke-width:0.5;stroke-dasharray:5.0,5.0;" x1="577.5" x2="577.5" y1="56.0679" y2="573.9521"/><line style="stroke:#181818;stroke-width:0.5;stroke-dasharray:5.0,5.0;" x1="905.5" x2="905.5" y1="56.0679" y2="573.9521"/><text fill="#000000" font-family="sans-serif" font-size="14" lengthAdjust="spacing" textLength="106" x="5" y="51.9659">:ControllerActor</text><ellipse cx="61" cy="21" fill="#E2E2F0" rx="12" ry="12" style="stroke:#181818;stroke-width:0.5;"/><polygon fill="#181818" points="57,9,63,4,61,9,63,14,57,9" style="stroke:#181818;stroke-width:1.0;"/><text fill="#000000" font-family="sans-serif" font-size="14" lengthAdjust="spacing" textLength="106" x="5" y="587.9181">:ControllerActor</text><ellipse cx="61" cy="608.0201" fill="#E2E2F0" rx="12" ry="12" style="stroke:#181818;stroke-width:0.5;"/><polygon fill="#181818" points="57,596.0201,63,591.0201,61,596.0201,63,601.0201,57,596.0201" style="stroke:#181818;stroke-width:1.0;"/><text fill="#000000" font-family="sans-serif" font-size="14" lengthAdjust="spacing" textLength="172" x="127" y="51.9659">:SimulationManagerActor</text><ellipse cx="216" cy="21" fill="#E2E2F0" rx="12" ry="12" style="stroke:#181818;stroke-width:0.5;"/><polygon fill="#181818" points="212,9,218,4,216,9,218,14,212,9" style="stroke:#181818;stroke-width:1.0;"/><text fill="#000000" font-family="sans-serif" font-size="14" lengthAdjust="spacing" textLength="172" x="127" y="587.9181">:SimulationManagerActor</text><ellipse cx="216" cy="608.0201" fill="#E2E2F0" rx="12" ry="12" style="stroke:#181818;stroke-width:0.5;"/><polygon fill="#181818" points="212,596.0201,218,591.0201,216,596.0201,218,601.0201,212,596.0201" style="stroke:#181818;stroke-width:1.0;"/><text fill="#000000" font-family="sans-serif" font-size="14" lengthAdjust="spacing" textLength="129" x="510.5" y="51.9659">:CelestialBodyActor</text><ellipse cx="578" cy="21" fill="#E2E2F0" rx="12" ry="12" style="stroke:#181818;stroke-width:0.5;"/><polygon fill="#181818" points="574,9,580,4,578,9,580,14,574,9" style="stroke:#181818;stroke-width:1.0;"/><text fill="#000000" font-family="sans-serif" font-size="14" lengthAdjust="spacing" textLength="129" x="510.5" y="587.9181">:CelestialBodyActor</text><ellipse cx="578" cy="608.0201" fill="#E2E2F0" rx="12" ry="12" style="stroke:#181818;stroke-width:0.5;"/><polygon fill="#181818" points="574,596.0201,580,591.0201,578,596.0201,580,601.0201,574,596.0201" style="stroke:#181818;stroke-width:1.0;"/><text fill="#000000" font-family="sans-serif" font-size="14" lengthAdjust="spacing" textLength="137" x="834.5" y="51.9659">:EventRecorderActor</text><ellipse cx="906" cy="21" fill="#E2E2F0" rx="12" ry="12" style="stroke:#181818;stroke-width:0.5;"/><polygon fill="#181818" points="902,9,908,4,906,9,908,14,902,9" style="stroke:#181818;stroke-width:1.0;"/><text fill="#000000" font-family="sans-serif" font-size="14" lengthAdjust="spacing" textLength="137" x="834.5" y="587.9181">:EventRecorderActor</text><ellipse cx="906" cy="608.0201" fill="#E2E2F0" rx="12" ry="12" style="stroke:#181818;stroke-width:0.5;"/><polygon fill="#181818" points="902,596.0201,908,591.0201,906,596.0201,908,601.0201,902,596.0201" style="stroke:#181818;stroke-width:1.0;"/><rect fill="#FFFFFF" height="498.8842" style="stroke:#181818;stroke-width:1.0;" width="10" x="56" y="66.0679"/><rect fill="#FFFFFF" height="498.8842" style="stroke:#181818;stroke-width:1.0;" width="10" x="211" y="66.0679"/><rect fill="#FFFFFF" height="498.8842" style="stroke:#181818;stroke-width:1.0;" width="10" x="573" y="66.0679"/><rect fill="#FFFFFF" height="498.8842" style="stroke:#181818;stroke-width:1.0;" width="10" x="901" y="66.0679"/><polygon fill="#181818" points="199,85.7739,209,89.7739,199,93.7739,203,89.7739" style="stroke:#181818;stroke-width:1.0;"/><line style="stroke:#181818;stroke-width:1.0;stroke-dasharray:2.0,2.0;" x1="66" x2="205" y1="89.7739" y2="89.7739"/><text fill="#000000" font-family="sans-serif" font-size="13" font-weight="bold" lengthAdjust="spacing" textLength="7" x="73" y="83.9649">1</text><text fill="#000000" font-family="sans-serif" font-size="13" lengthAdjust="spacing" textLength="101" x="84" y="83.9649">StartSimulation()</text><path d="M117,104.7739 L189,104.7739 L189,114.4799 L179,124.4799 L117,124.4799 L117,104.7739 " fill="#EEEEEE" style="stroke:#000000;stroke-width:1.5;"/><rect fill="none" height="420.4722" style="stroke:#000000;stroke-width:1.5;" width="870.5" x="117" y="104.7739"/><text fill="#000000" font-family="sans-serif" font-size="13" font-weight="bold" lengthAdjust="spacing" textLength="27" x="132" y="119.6709">loop</text><line style="stroke:#181818;stroke-width:1.0;stroke-dasharray:2.0,2.0;" x1="221" x2="263" y1="148.186" y2="148.186"/><line style="stroke:#181818;stroke-width:1.0;stroke-dasharray:2.0,2.0;" x1="263" x2="263" y1="148.186" y2="161.186"/><line style="stroke:#181818;stroke-width:1.0;stroke-dasharray:2.0,2.0;" x1="222" x2="263" y1="161.186" y2="161.186"/><polygon fill="#181818" points="232,157.186,222,161.186,232,165.186,228,161.186" style="stroke:#181818;stroke-width:1.0;"/><text fill="#000000" font-family="sans-serif" font-size="13" font-weight="bold" lengthAdjust="spacing" textLength="7" x="228" y="142.377">2</text><text fill="#000000" font-family="sans-serif" font-size="13" lengthAdjust="spacing" textLength="87" x="239" y="142.377">IterationStep()</text><polygon fill="#181818" points="561,188.892,571,192.892,561,196.892,565,192.892" style="stroke:#181818;stroke-width:1.0;"/><line style="stroke:#181818;stroke-width:1.0;stroke-dasharray:2.0,2.0;" x1="221" x2="567" y1="192.892" y2="192.892"/><text fill="#000000" font-family="sans-serif" font-size="13" font-weight="bold" lengthAdjust="spacing" textLength="7" x="228" y="187.083">3</text><text fill="#000000" font-family="sans-serif" font-size="13" lengthAdjust="spacing" textLength="182" x="239" y="187.083">UpdateCelestialBodyType(self)</text><polygon fill="#181818" points="232,220.598,222,224.598,232,228.598,228,224.598" style="stroke:#181818;stroke-width:1.0;"/><line style="stroke:#181818;stroke-width:1.0;stroke-dasharray:2.0,2.0;" x1="226" x2="572" y1="224.598" y2="224.598"/><text fill="#000000" font-family="sans-serif" font-size="13" font-weight="bold" lengthAdjust="spacing" textLength="7" x="238" y="218.789">4</text><text fill="#000000" font-family="sans-serif" font-size="13" lengthAdjust="spacing" textLength="310" x="249" y="218.789">CelestialBodyState(celestialBody, celestialBodyType)</text><line style="stroke:#181818;stroke-width:1.0;stroke-dasharray:2.0,2.0;" x1="221" x2="263" y1="256.304" y2="256.304"/><line style="stroke:#181818;stroke-width:1.0;stroke-dasharray:2.0,2.0;" x1="263" x2="263" y1="256.304" y2="269.304"/><line style="stroke:#181818;stroke-width:1.0;stroke-dasharray:2.0,2.0;" x1="222" x2="263" y1="269.304" y2="269.304"/><polygon fill="#181818" points="232,265.304,222,269.304,232,273.304,228,269.304" style="stroke:#181818;stroke-width:1.0;"/><text fill="#000000" font-family="sans-serif" font-size="13" font-weight="bold" lengthAdjust="spacing" textLength="7" x="228" y="250.495">5</text><text fill="#000000" font-family="sans-serif" font-size="13" lengthAdjust="spacing" textLength="87" x="239" y="250.495">IterationStep()</text><polygon fill="#181818" points="561,297.01,571,301.01,561,305.01,565,301.01" style="stroke:#181818;stroke-width:1.0;"/><line style="stroke:#181818;stroke-width:1.0;stroke-dasharray:2.0,2.0;" x1="221" x2="567" y1="301.01" y2="301.01"/><text fill="#000000" font-family="sans-serif" font-size="13" font-weight="bold" lengthAdjust="spacing" textLength="7" x="228" y="295.201">6</text><text fill="#000000" font-family="sans-serif" font-size="13" lengthAdjust="spacing" textLength="217" x="239" y="295.201">MoveToNextPosition(tmpState, self)</text><polygon fill="#181818" points="232,328.716,222,332.716,232,336.716,228,332.716" style="stroke:#181818;stroke-width:1.0;"/><line style="stroke:#181818;stroke-width:1.0;stroke-dasharray:2.0,2.0;" x1="226" x2="572" y1="332.716" y2="332.716"/><text fill="#000000" font-family="sans-serif" font-size="13" font-weight="bold" lengthAdjust="spacing" textLength="7" x="238" y="326.907">7</text><text fill="#000000" font-family="sans-serif" font-size="13" lengthAdjust="spacing" textLength="310" x="249" y="326.907">CelestialBodyState(celestialBody, celestialBodyType)</text><line style="stroke:#181818;stroke-width:1.0;stroke-dasharray:2.0,2.0;" x1="221" x2="263" y1="364.4221" y2="364.4221"/><line style="stroke:#181818;stroke-width:1.0;stroke-dasharray:2.0,2.0;" x1="263" x2="263" y1="364.4221" y2="377.4221"/><line style="stroke:#181818;stroke-width:1.0;stroke-dasharray:2.0,2.0;" x1="222" x2="263" y1="377.4221" y2="377.4221"/><polygon fill="#181818" points="232,373.4221,222,377.4221,232,381.4221,228,377.4221" style="stroke:#181818;stroke-width:1.0;"/><text fill="#000000" font-family="sans-serif" font-size="13" font-weight="bold" lengthAdjust="spacing" textLength="7" x="228" y="358.6131">8</text><text fill="#000000" font-family="sans-serif" font-size="13" lengthAdjust="spacing" textLength="87" x="239" y="358.6131">IterationStep()</text><polygon fill="#181818" points="561,405.1281,571,409.1281,561,413.1281,565,409.1281" style="stroke:#181818;stroke-width:1.0;"/><line style="stroke:#181818;stroke-width:1.0;stroke-dasharray:2.0,2.0;" x1="221" x2="567" y1="409.1281" y2="409.1281"/><text fill="#000000" font-family="sans-serif" font-size="13" font-weight="bold" lengthAdjust="spacing" textLength="7" x="228" y="403.3191">9</text><text fill="#000000" font-family="sans-serif" font-size="13" lengthAdjust="spacing" textLength="178" x="239" y="403.3191">SolveCollisions(tmpState, self)</text><polygon fill="#181818" points="889,436.8341,899,440.8341,889,444.8341,893,440.8341" style="stroke:#181818;stroke-width:1.0;"/><line style="stroke:#181818;stroke-width:1.0;stroke-dasharray:2.0,2.0;" x1="583" x2="895" y1="440.8341" y2="440.8341"/><text fill="#000000" font-family="sans-serif" font-size="13" font-weight="bold" lengthAdjust="spacing" textLength="14" x="590" y="435.0251">10</text><text fill="#000000" font-family="sans-serif" font-size="13" lengthAdjust="spacing" textLength="276" x="608" y="435.0251">RecordCollision(celestialBody1, celestialBody2)</text><polygon fill="#181818" points="232,468.5401,222,472.5401,232,476.5401,228,472.5401" style="stroke:#181818;stroke-width:1.0;"/><line style="stroke:#181818;stroke-width:1.0;stroke-dasharray:2.0,2.0;" x1="226" x2="572" y1="472.5401" y2="472.5401"/><text fill="#000000" font-family="sans-serif" font-size="13" font-weight="bold" lengthAdjust="spacing" textLength="14" x="238" y="466.7311">11</text><text fill="#000000" font-family="sans-serif" font-size="13" lengthAdjust="spacing" textLength="310" x="256" y="466.7311">CelestialBodyState(celestialBody, celestialBodyType)</text><line style="stroke:#181818;stroke-width:1.0;stroke-dasharray:2.0,2.0;" x1="221" x2="263" y1="504.2461" y2="504.2461"/><line style="stroke:#181818;stroke-width:1.0;stroke-dasharray:2.0,2.0;" x1="263" x2="263" y1="504.2461" y2="517.2461"/><line style="stroke:#181818;stroke-width:1.0;stroke-dasharray:2.0,2.0;" x1="222" x2="263" y1="517.2461" y2="517.2461"/><polygon fill="#181818" points="232,513.2461,222,517.2461,232,521.2461,228,517.2461" style="stroke:#181818;stroke-width:1.0;"/><text fill="#000000" font-family="sans-serif" font-size="13" font-weight="bold" lengthAdjust="spacing" textLength="14" x="228" y="498.4371">12</text><text fill="#000000" font-family="sans-serif" font-size="13" lengthAdjust="spacing" textLength="87" x="246" y="498.4371">IterationStep()</text><polygon fill="#181818" points="199,551.9521,209,555.9521,199,559.9521,203,555.9521" style="stroke:#181818;stroke-width:1.0;"/><line style="stroke:#181818;stroke-width:1.0;stroke-dasharray:2.0,2.0;" x1="66" x2="205" y1="555.9521" y2="555.9521"/><text fill="#000000" font-family="sans-serif" font-size="13" font-weight="bold" lengthAdjust="spacing" textLength="14" x="73" y="550.1431">13</text><text fill="#000000" font-family="sans-serif" font-size="13" lengthAdjust="spacing" textLength="100" x="91" y="550.1431">StopSimulation()</text><!--MD5=[eab214c9ed64fb4c349cde62433dfb5a]
@startuml
autonumber

control ":ControllerActor" as controller
control ":SimulationManagerActor" as simulationManager
control ":CelestialBodyActor" as celestialBody
control ":EventRecorderActor" as eventRecorder

activate controller
activate simulationManager
activate celestialBody
activate eventRecorder

controller - -> simulationManager: StartSimulation()

loop
    simulationManager - -> simulationManager: IterationStep()
    simulationManager - -> celestialBody: UpdateCelestialBodyType(self)
    celestialBody - -> simulationManager: CelestialBodyState(celestialBody, celestialBodyType)
    simulationManager - -> simulationManager: IterationStep()
    simulationManager - -> celestialBody: MoveToNextPosition(tmpState, self)
    celestialBody - -> simulationManager: CelestialBodyState(celestialBody, celestialBodyType)
    simulationManager - -> simulationManager: IterationStep()
    simulationManager - -> celestialBody: SolveCollisions(tmpState, self)
    celestialBody - -> eventRecorder: RecordCollision(celestialBody1, celestialBody2)
    celestialBody - -> simulationManager: CelestialBodyState(celestialBody, celestialBodyType)
    simulationManager - -> simulationManager: IterationStep()
end

controller - -> simulationManager: StopSimulation()

@enduml

PlantUML version 1.2022.12(Sun Oct 23 20:12:26 CEST 2022)
(GPL source distribution)
Java Runtime: OpenJDK Runtime Environment
JVM: OpenJDK 64-Bit Server VM
Default Encoding: UTF-8
Language: en
Country: US
--></g></svg>