<?xml version="1.0" encoding="UTF-8" standalone="no"?><svg xmlns="http://www.w3.org/2000/svg" xmlns:xlink="http://www.w3.org/1999/xlink" contentStyleType="text/css" height="582px" preserveAspectRatio="none" style="width:744px;height:582px;background:#FFFFFF;" version="1.1" viewBox="0 0 744 582" width="744px" zoomAndPan="magnify"><defs/><g><rect fill="#FFFFFF" height="455.1782" style="stroke:#181818;stroke-width:1.0;" width="10" x="37.5" y="66.0679"/><rect fill="#FFFFFF" height="290.6481" style="stroke:#181818;stroke-width:1.0;" width="10" x="234.5" y="230.598"/><rect fill="#FFFFFF" height="322.3541" style="stroke:#181818;stroke-width:1.0;" width="10" x="338.5" y="198.892"/><rect fill="#FFFFFF" height="345.0602" style="stroke:#181818;stroke-width:1.0;" width="10" x="493.5" y="167.186"/><rect fill="#FFFFFF" height="376.7662" style="stroke:#181818;stroke-width:1.0;" width="10" x="660" y="135.4799"/><line style="stroke:#181818;stroke-width:0.5;stroke-dasharray:5.0,5.0;" x1="42" x2="42" y1="56.0679" y2="530.2461"/><line style="stroke:#181818;stroke-width:0.5;stroke-dasharray:5.0,5.0;" x1="239.5" x2="239.5" y1="56.0679" y2="530.2461"/><line style="stroke:#181818;stroke-width:0.5;stroke-dasharray:5.0,5.0;" x1="343.5" x2="343.5" y1="56.0679" y2="530.2461"/><line style="stroke:#181818;stroke-width:0.5;stroke-dasharray:5.0,5.0;" x1="498.5" x2="498.5" y1="56.0679" y2="530.2461"/><line style="stroke:#181818;stroke-width:0.5;stroke-dasharray:5.0,5.0;" x1="664.5" x2="664.5" y1="56.0679" y2="530.2461"/><text fill="#000000" font-family="sans-serif" font-size="14" lengthAdjust="spacing" textLength="69" x="5" y="51.9659">:RootActor</text><ellipse cx="42.5" cy="21" fill="#E2E2F0" rx="12" ry="12" style="stroke:#181818;stroke-width:0.5;"/><polygon fill="#181818" points="38.5,9,44.5,4,42.5,9,44.5,14,38.5,9" style="stroke:#181818;stroke-width:1.0;"/><text fill="#000000" font-family="sans-serif" font-size="14" lengthAdjust="spacing" textLength="69" x="5" y="544.2121">:RootActor</text><ellipse cx="42.5" cy="564.314" fill="#E2E2F0" rx="12" ry="12" style="stroke:#181818;stroke-width:0.5;"/><polygon fill="#181818" points="38.5,552.314,44.5,547.314,42.5,552.314,44.5,557.314,38.5,552.314" style="stroke:#181818;stroke-width:1.0;"/><text fill="#000000" font-family="sans-serif" font-size="14" lengthAdjust="spacing" textLength="70" x="201.5" y="51.9659">:ViewActor</text><ellipse cx="239.5" cy="21" fill="#E2E2F0" rx="12" ry="12" style="stroke:#181818;stroke-width:0.5;"/><polygon fill="#181818" points="235.5,9,241.5,4,239.5,9,241.5,14,235.5,9" style="stroke:#181818;stroke-width:1.0;"/><text fill="#000000" font-family="sans-serif" font-size="14" lengthAdjust="spacing" textLength="70" x="201.5" y="544.2121">:ViewActor</text><ellipse cx="239.5" cy="564.314" fill="#E2E2F0" rx="12" ry="12" style="stroke:#181818;stroke-width:0.5;"/><polygon fill="#181818" points="235.5,552.314,241.5,547.314,239.5,552.314,241.5,557.314,235.5,552.314" style="stroke:#181818;stroke-width:1.0;"/><text fill="#000000" font-family="sans-serif" font-size="14" lengthAdjust="spacing" textLength="106" x="287.5" y="51.9659">:ControllerActor</text><ellipse cx="343.5" cy="21" fill="#E2E2F0" rx="12" ry="12" style="stroke:#181818;stroke-width:0.5;"/><polygon fill="#181818" points="339.5,9,345.5,4,343.5,9,345.5,14,339.5,9" style="stroke:#181818;stroke-width:1.0;"/><text fill="#000000" font-family="sans-serif" font-size="14" lengthAdjust="spacing" textLength="106" x="287.5" y="544.2121">:ControllerActor</text><ellipse cx="343.5" cy="564.314" fill="#E2E2F0" rx="12" ry="12" style="stroke:#181818;stroke-width:0.5;"/><polygon fill="#181818" points="339.5,552.314,345.5,547.314,343.5,552.314,345.5,557.314,339.5,552.314" style="stroke:#181818;stroke-width:1.0;"/><text fill="#000000" font-family="sans-serif" font-size="14" lengthAdjust="spacing" textLength="172" x="409.5" y="51.9659">:SimulationManagerActor</text><ellipse cx="498.5" cy="21" fill="#E2E2F0" rx="12" ry="12" style="stroke:#181818;stroke-width:0.5;"/><polygon fill="#181818" points="494.5,9,500.5,4,498.5,9,500.5,14,494.5,9" style="stroke:#181818;stroke-width:1.0;"/><text fill="#000000" font-family="sans-serif" font-size="14" lengthAdjust="spacing" textLength="172" x="409.5" y="544.2121">:SimulationManagerActor</text><ellipse cx="498.5" cy="564.314" fill="#E2E2F0" rx="12" ry="12" style="stroke:#181818;stroke-width:0.5;"/><polygon fill="#181818" points="494.5,552.314,500.5,547.314,498.5,552.314,500.5,557.314,494.5,552.314" style="stroke:#181818;stroke-width:1.0;"/><text fill="#000000" font-family="sans-serif" font-size="14" lengthAdjust="spacing" textLength="129" x="597.5" y="51.9659">:CelestialBodyActor</text><ellipse cx="665" cy="21" fill="#E2E2F0" rx="12" ry="12" style="stroke:#181818;stroke-width:0.5;"/><polygon fill="#181818" points="661,9,667,4,665,9,667,14,661,9" style="stroke:#181818;stroke-width:1.0;"/><text fill="#000000" font-family="sans-serif" font-size="14" lengthAdjust="spacing" textLength="129" x="597.5" y="544.2121">:CelestialBodyActor</text><ellipse cx="665" cy="564.314" fill="#E2E2F0" rx="12" ry="12" style="stroke:#181818;stroke-width:0.5;"/><polygon fill="#181818" points="661,552.314,667,547.314,665,552.314,667,557.314,661,552.314" style="stroke:#181818;stroke-width:1.0;"/><rect fill="#FFFFFF" height="455.1782" style="stroke:#181818;stroke-width:1.0;" width="10" x="37.5" y="66.0679"/><rect fill="#FFFFFF" height="290.6481" style="stroke:#181818;stroke-width:1.0;" width="10" x="234.5" y="230.598"/><rect fill="#FFFFFF" height="322.3541" style="stroke:#181818;stroke-width:1.0;" width="10" x="338.5" y="198.892"/><rect fill="#FFFFFF" height="345.0602" style="stroke:#181818;stroke-width:1.0;" width="10" x="493.5" y="167.186"/><rect fill="#FFFFFF" height="376.7662" style="stroke:#181818;stroke-width:1.0;" width="10" x="660" y="135.4799"/><rect fill="#EEEEEE" height="3" style="stroke:#EEEEEE;stroke-width:1.0;" width="737.5" x="0" y="87.9209"/><line style="stroke:#000000;stroke-width:1.0;" x1="0" x2="737.5" y1="87.9209" y2="87.9209"/><line style="stroke:#000000;stroke-width:1.0;" x1="0" x2="737.5" y1="90.9209" y2="90.9209"/><rect fill="#EEEEEE" height="25.706" style="stroke:#000000;stroke-width:2.0;" width="97" x="320.25" y="76.0679"/><text fill="#000000" font-family="sans-serif" font-size="13" font-weight="bold" lengthAdjust="spacing" textLength="80" x="326.25" y="93.9649">Actors spawn</text><polygon fill="#181818" points="648,131.4799,658,135.4799,648,139.4799,652,135.4799" style="stroke:#181818;stroke-width:1.0;"/><line style="stroke:#181818;stroke-width:1.0;stroke-dasharray:2.0,2.0;" x1="47.5" x2="654" y1="135.4799" y2="135.4799"/><text fill="#000000" font-family="sans-serif" font-size="13" font-weight="bold" lengthAdjust="spacing" textLength="7" x="54.5" y="129.6709">1</text><text fill="#000000" font-family="sans-serif" font-size="13" lengthAdjust="spacing" textLength="48" x="65.5" y="129.6709">Spawn()</text><polygon fill="#181818" points="481.5,163.186,491.5,167.186,481.5,171.186,485.5,167.186" style="stroke:#181818;stroke-width:1.0;"/><line style="stroke:#181818;stroke-width:1.0;stroke-dasharray:2.0,2.0;" x1="47.5" x2="487.5" y1="167.186" y2="167.186"/><text fill="#000000" font-family="sans-serif" font-size="13" font-weight="bold" lengthAdjust="spacing" textLength="7" x="54.5" y="161.377">2</text><text fill="#000000" font-family="sans-serif" font-size="13" lengthAdjust="spacing" textLength="177" x="65.5" y="161.377">Spawn(celestialBodyActorRef)</text><polygon fill="#181818" points="326.5,194.892,336.5,198.892,326.5,202.892,330.5,198.892" style="stroke:#181818;stroke-width:1.0;"/><line style="stroke:#181818;stroke-width:1.0;stroke-dasharray:2.0,2.0;" x1="47.5" x2="332.5" y1="198.892" y2="198.892"/><text fill="#000000" font-family="sans-serif" font-size="13" font-weight="bold" lengthAdjust="spacing" textLength="7" x="54.5" y="193.083">3</text><text fill="#000000" font-family="sans-serif" font-size="13" lengthAdjust="spacing" textLength="216" x="65.5" y="193.083">Spawn(simulationManagerActorRef)</text><polygon fill="#181818" points="222.5,226.598,232.5,230.598,222.5,234.598,226.5,230.598" style="stroke:#181818;stroke-width:1.0;"/><line style="stroke:#181818;stroke-width:1.0;stroke-dasharray:2.0,2.0;" x1="47.5" x2="228.5" y1="230.598" y2="230.598"/><text fill="#000000" font-family="sans-serif" font-size="13" font-weight="bold" lengthAdjust="spacing" textLength="7" x="54.5" y="224.789">4</text><text fill="#000000" font-family="sans-serif" font-size="13" lengthAdjust="spacing" textLength="157" x="65.5" y="224.789">Spawn(controllerActorRef)</text><polygon fill="#181818" points="326.5,258.304,336.5,262.304,326.5,266.304,330.5,262.304" style="stroke:#181818;stroke-width:1.0;"/><line style="stroke:#181818;stroke-width:1.0;stroke-dasharray:2.0,2.0;" x1="47.5" x2="332.5" y1="262.304" y2="262.304"/><text fill="#000000" font-family="sans-serif" font-size="13" font-weight="bold" lengthAdjust="spacing" textLength="7" x="54.5" y="256.495">5</text><text fill="#000000" font-family="sans-serif" font-size="13" lengthAdjust="spacing" textLength="133" x="65.5" y="256.495">SetView(viewActorRef)</text><rect fill="#EEEEEE" height="3" style="stroke:#EEEEEE;stroke-width:1.0;" width="737.5" x="0" y="292.157"/><line style="stroke:#000000;stroke-width:1.0;" x1="0" x2="737.5" y1="292.157" y2="292.157"/><line style="stroke:#000000;stroke-width:1.0;" x1="0" x2="737.5" y1="295.157" y2="295.157"/><rect fill="#EEEEEE" height="25.706" style="stroke:#000000;stroke-width:2.0;" width="118" x="309.75" y="280.304"/><text fill="#000000" font-family="sans-serif" font-size="13" font-weight="bold" lengthAdjust="spacing" textLength="101" x="315.75" y="298.201">Simulation starts</text><polygon fill="#181818" points="326.5,335.716,336.5,339.716,326.5,343.716,330.5,339.716" style="stroke:#181818;stroke-width:1.0;"/><line style="stroke:#181818;stroke-width:1.0;stroke-dasharray:2.0,2.0;" x1="244.5" x2="332.5" y1="339.716" y2="339.716"/><text fill="#000000" font-family="sans-serif" font-size="13" font-weight="bold" lengthAdjust="spacing" textLength="7" x="251.5" y="333.907">6</text><text fill="#000000" font-family="sans-serif" font-size="13" lengthAdjust="spacing" textLength="37" x="262.5" y="333.907">Start()</text><polygon fill="#181818" points="481.5,367.4221,491.5,371.4221,481.5,375.4221,485.5,371.4221" style="stroke:#181818;stroke-width:1.0;"/><line style="stroke:#181818;stroke-width:1.0;stroke-dasharray:2.0,2.0;" x1="348.5" x2="487.5" y1="371.4221" y2="371.4221"/><text fill="#000000" font-family="sans-serif" font-size="13" font-weight="bold" lengthAdjust="spacing" textLength="7" x="355.5" y="365.6131">7</text><text fill="#000000" font-family="sans-serif" font-size="13" lengthAdjust="spacing" textLength="101" x="366.5" y="365.6131">StartSimulation()</text><rect fill="#EEEEEE" height="3" style="stroke:#EEEEEE;stroke-width:1.0;" width="737.5" x="0" y="401.2751"/><line style="stroke:#000000;stroke-width:1.0;" x1="0" x2="737.5" y1="401.2751" y2="401.2751"/><line style="stroke:#000000;stroke-width:1.0;" x1="0" x2="737.5" y1="404.2751" y2="404.2751"/><rect fill="#EEEEEE" height="25.706" style="stroke:#000000;stroke-width:2.0;" width="113" x="312.25" y="389.4221"/><text fill="#000000" font-family="sans-serif" font-size="13" font-weight="bold" lengthAdjust="spacing" textLength="96" x="318.25" y="407.3191">Simulation ends</text><polygon fill="#181818" points="326.5,444.8341,336.5,448.8341,326.5,452.8341,330.5,448.8341" style="stroke:#181818;stroke-width:1.0;"/><line style="stroke:#181818;stroke-width:1.0;stroke-dasharray:2.0,2.0;" x1="244.5" x2="332.5" y1="448.8341" y2="448.8341"/><text fill="#000000" font-family="sans-serif" font-size="13" font-weight="bold" lengthAdjust="spacing" textLength="7" x="251.5" y="443.0251">8</text><text fill="#000000" font-family="sans-serif" font-size="13" lengthAdjust="spacing" textLength="36" x="262.5" y="443.0251">Stop()</text><polygon fill="#181818" points="481.5,476.5401,491.5,480.5401,481.5,484.5401,485.5,480.5401" style="stroke:#181818;stroke-width:1.0;"/><line style="stroke:#181818;stroke-width:1.0;stroke-dasharray:2.0,2.0;" x1="348.5" x2="487.5" y1="480.5401" y2="480.5401"/><text fill="#000000" font-family="sans-serif" font-size="13" font-weight="bold" lengthAdjust="spacing" textLength="7" x="355.5" y="474.7311">9</text><text fill="#000000" font-family="sans-serif" font-size="13" lengthAdjust="spacing" textLength="100" x="366.5" y="474.7311">StopSimulation()</text><polygon fill="#181818" points="653,508.2461,663,512.2461,653,516.2461,657,512.2461" style="stroke:#181818;stroke-width:1.0;"/><line style="stroke:#181818;stroke-width:1.0;stroke-dasharray:2.0,2.0;" x1="498.5" x2="659" y1="512.2461" y2="512.2461"/><text fill="#000000" font-family="sans-serif" font-size="13" font-weight="bold" lengthAdjust="spacing" textLength="14" x="505.5" y="506.4371">10</text><text fill="#000000" font-family="sans-serif" font-size="13" lengthAdjust="spacing" textLength="25" x="523.5" y="506.4371">Kill()</text><line style="stroke:#A80036;stroke-width:2.0;" x1="489.5" x2="507.5" y1="503.2461" y2="521.2461"/><line style="stroke:#A80036;stroke-width:2.0;" x1="489.5" x2="507.5" y1="521.2461" y2="503.2461"/><line style="stroke:#A80036;stroke-width:2.0;" x1="656" x2="674" y1="503.2461" y2="521.2461"/><line style="stroke:#A80036;stroke-width:2.0;" x1="656" x2="674" y1="521.2461" y2="503.2461"/><!--MD5=[736dc333a2e1f6db51d0149563812cf7]
@startuml
autonumber

control ":RootActor" as root
control ":ViewActor" as view
control ":ControllerActor" as controller
control ":SimulationManagerActor" as simulationManager
control ":CelestialBodyActor" as celestialBody

activate root

== Actors spawn ==
root - -> celestialBody: Spawn()
activate celestialBody
root - -> simulationManager: Spawn(celestialBodyActorRef)
activate simulationManager
root - -> controller: Spawn(simulationManagerActorRef)
activate controller
root - -> view: Spawn(controllerActorRef)
activate view
root - -> controller: SetView(viewActorRef)

== Simulation starts ==
view - -> controller: Start()
controller - -> simulationManager: StartSimulation()

== Simulation ends ==
view - -> controller: Stop()
controller - -> simulationManager: StopSimulation()
simulationManager - -> celestialBody: Kill()
destroy simulationManager
destroy celestialBody

@enduml

PlantUML version 1.2022.12(Sun Oct 23 20:12:26 CEST 2022)
(GPL source distribution)
Java Runtime: OpenJDK Runtime Environment
JVM: OpenJDK 64-Bit Server VM
Default Encoding: UTF-8
Language: en
Country: US
--></g></svg>