<?xml version="1.0" encoding="UTF-8" standalone="no"?><svg xmlns="http://www.w3.org/2000/svg" xmlns:xlink="http://www.w3.org/1999/xlink" contentStyleType="text/css" height="703px" preserveAspectRatio="none" style="width:1072px;height:703px;background:#FFFFFF;" version="1.1" viewBox="0 0 1072 703" width="1072px" zoomAndPan="magnify"><defs/><g><!--MD5=[03efba9646de4f293b96a919cc2bc528]
cluster ViewComponent--><g id="cluster_ViewComponent"><rect fill="none" height="116" rx="2.5" ry="2.5" style="stroke:#181818;stroke-width:1.0;" width="470" x="58" y="7"/><rect fill="none" height="10" style="stroke:#181818;stroke-width:1.0;" width="15" x="508" y="12"/><rect fill="none" height="2" style="stroke:#181818;stroke-width:1.0;" width="4" x="506" y="14"/><rect fill="none" height="2" style="stroke:#181818;stroke-width:1.0;" width="4" x="506" y="18"/><text fill="#000000" font-family="sans-serif" font-size="14" font-weight="bold" lengthAdjust="spacing" textLength="109" x="238.5" y="34.9659">ViewComponent</text></g><!--MD5=[8c872862d8d875fc268d773ba345d70f]
cluster ControllerComponent--><g id="cluster_ControllerComponent"><rect fill="none" height="116" rx="2.5" ry="2.5" style="stroke:#181818;stroke-width:1.0;" width="505.5" x="40" y="221"/><rect fill="none" height="10" style="stroke:#181818;stroke-width:1.0;" width="15" x="525.5" y="226"/><rect fill="none" height="2" style="stroke:#181818;stroke-width:1.0;" width="4" x="523.5" y="228"/><rect fill="none" height="2" style="stroke:#181818;stroke-width:1.0;" width="4" x="523.5" y="232"/><text fill="#000000" font-family="sans-serif" font-size="14" font-weight="bold" lengthAdjust="spacing" textLength="145" x="220.25" y="248.9659">ControllerComponent</text></g><!--MD5=[1570a3107b8d16b84f689c4b81927e37]
cluster ModelComponent--><g id="cluster_ModelComponent"><rect fill="none" height="308" rx="2.5" ry="2.5" style="stroke:#181818;stroke-width:1.0;" width="1059" x="7" y="389"/><rect fill="none" height="10" style="stroke:#181818;stroke-width:1.0;" width="15" x="1046" y="394"/><rect fill="none" height="2" style="stroke:#181818;stroke-width:1.0;" width="4" x="1044" y="396"/><rect fill="none" height="2" style="stroke:#181818;stroke-width:1.0;" width="4" x="1044" y="400"/><text fill="#000000" font-family="sans-serif" font-size="14" font-weight="bold" lengthAdjust="spacing" textLength="120" x="476.5" y="416.9659">ModelComponent</text></g><!--MD5=[c0b63fc4a3fcfad45391963a5f65a156]
class ViewActor--><g id="elem_ViewActor"><rect codeLine="5" fill="#F1F1F1" height="61.412" id="ViewActor" rx="2.5" ry="2.5" style="stroke:#181818;stroke-width:0.5;" width="98" x="74" y="45.5"/><ellipse cx="89" cy="68.206" fill="#ADD1B2" rx="11" ry="11" style="stroke:#181818;stroke-width:1.0;"/><path d="M89.1094,63.4873 Q88.1875,63.4873 87.4531,63.7998 Q86.7344,64.1123 86.2344,64.706 Q85.7344,65.2841 85.4531,66.1591 Q85.1875,67.0341 85.1875,68.1279 Q85.1875,69.5654 85.625,70.6123 Q86.0781,71.6591 86.9219,72.206 Q87.7813,72.7529 89.0938,72.7529 Q89.875,72.7529 90.5625,72.6279 Q91.2656,72.4873 92.2656,72.1748 L92.2656,74.0498 Q91.4063,74.3779 90.6406,74.5029 Q89.8906,74.6279 88.875,74.6279 Q86.9531,74.6279 85.6406,73.831 Q84.3438,73.0185 83.6875,71.5498 Q83.0313,70.0654 83.0313,68.0966 Q83.0313,66.6748 83.4219,65.5029 Q83.8281,64.3154 84.6094,63.4404 Q85.3906,62.5654 86.5313,62.0966 Q87.6719,61.6123 89.1406,61.6123 Q90.0938,61.6123 90.9844,61.8154 Q91.8906,62.0029 92.8281,62.4716 L92,64.2529 Q91.2188,63.8779 90.5625,63.6904 Q89.9063,63.4873 89.1094,63.4873 Z " fill="#000000"/><text fill="#000000" font-family="sans-serif" font-size="12" font-style="italic" lengthAdjust="spacing" textLength="44" x="114" y="63.3281">«object»</text><text fill="#000000" font-family="sans-serif" font-size="14" lengthAdjust="spacing" textLength="66" x="103" y="81.81">ViewActor</text><line style="stroke:#181818;stroke-width:0.5;" x1="75" x2="171" y1="90.912" y2="90.912"/><line style="stroke:#181818;stroke-width:0.5;" x1="75" x2="171" y1="98.912" y2="98.912"/></g><!--MD5=[4e4e72e0ef29f5bed22cd15f6258c70d]
class ViewActorCommand--><g id="elem_ViewActorCommand"><rect codeLine="6" fill="#F1F1F1" height="61.412" id="ViewActorCommand" rx="2.5" ry="2.5" style="stroke:#181818;stroke-width:0.5;" width="158" x="354" y="45.5"/><ellipse cx="369" cy="68.206" fill="#B4A7E5" rx="11" ry="11" style="stroke:#181818;stroke-width:1.0;"/><path d="M371.0938,74.706 L366.1875,74.706 L366.1875,73.331 L367.6094,73.0185 L367.6094,63.7373 L366.1875,63.3935 L366.1875,62.0341 L371.0938,62.0341 L371.0938,63.3935 L369.6719,63.7373 L369.6719,73.0185 L371.0938,73.331 L371.0938,74.706 Z " fill="#000000"/><text fill="#000000" font-family="sans-serif" font-size="12" font-style="italic" lengthAdjust="spacing" textLength="35" x="428.5" y="63.3281">«trait»</text><text fill="#000000" font-family="sans-serif" font-size="14" font-style="italic" lengthAdjust="spacing" textLength="126" x="383" y="81.81">ViewActorCommand</text><line style="stroke:#181818;stroke-width:0.5;" x1="355" x2="511" y1="90.912" y2="90.912"/><line style="stroke:#181818;stroke-width:0.5;" x1="355" x2="511" y1="98.912" y2="98.912"/></g><!--MD5=[9a2f167ab424a6bcc2010a142685c29e]
class ControllerActor--><g id="elem_ControllerActor"><rect codeLine="10" fill="#F1F1F1" height="61.412" id="ControllerActor" rx="2.5" ry="2.5" style="stroke:#181818;stroke-width:0.5;" width="134" x="56" y="259.5"/><ellipse cx="71" cy="282.206" fill="#ADD1B2" rx="11" ry="11" style="stroke:#181818;stroke-width:1.0;"/><path d="M71.1094,277.4873 Q70.1875,277.4873 69.4531,277.7998 Q68.7344,278.1123 68.2344,278.706 Q67.7344,279.2841 67.4531,280.1591 Q67.1875,281.0341 67.1875,282.1279 Q67.1875,283.5654 67.625,284.6123 Q68.0781,285.6591 68.9219,286.206 Q69.7813,286.7529 71.0938,286.7529 Q71.875,286.7529 72.5625,286.6279 Q73.2656,286.4873 74.2656,286.1748 L74.2656,288.0498 Q73.4063,288.3779 72.6406,288.5029 Q71.8906,288.6279 70.875,288.6279 Q68.9531,288.6279 67.6406,287.831 Q66.3438,287.0185 65.6875,285.5498 Q65.0313,284.0654 65.0313,282.0966 Q65.0313,280.6748 65.4219,279.5029 Q65.8281,278.3154 66.6094,277.4404 Q67.3906,276.5654 68.5313,276.0966 Q69.6719,275.6123 71.1406,275.6123 Q72.0938,275.6123 72.9844,275.8154 Q73.8906,276.0029 74.8281,276.4716 L74,278.2529 Q73.2188,277.8779 72.5625,277.6904 Q71.9063,277.4873 71.1094,277.4873 Z " fill="#000000"/><text fill="#000000" font-family="sans-serif" font-size="12" font-style="italic" lengthAdjust="spacing" textLength="44" x="114" y="277.3281">«object»</text><text fill="#000000" font-family="sans-serif" font-size="14" lengthAdjust="spacing" textLength="102" x="85" y="295.81">ControllerActor</text><line style="stroke:#181818;stroke-width:0.5;" x1="57" x2="189" y1="304.912" y2="304.912"/><line style="stroke:#181818;stroke-width:0.5;" x1="57" x2="189" y1="312.912" y2="312.912"/></g><!--MD5=[7ab5542d46523265b98afbdc329d41b2]
class ControllerActorCommand--><g id="elem_ControllerActorCommand"><rect codeLine="11" fill="#F1F1F1" height="61.412" id="ControllerActorCommand" rx="2.5" ry="2.5" style="stroke:#181818;stroke-width:0.5;" width="193" x="336.5" y="259.5"/><ellipse cx="351.5" cy="282.206" fill="#B4A7E5" rx="11" ry="11" style="stroke:#181818;stroke-width:1.0;"/><path d="M353.5938,288.706 L348.6875,288.706 L348.6875,287.331 L350.1094,287.0185 L350.1094,277.7373 L348.6875,277.3935 L348.6875,276.0341 L353.5938,276.0341 L353.5938,277.3935 L352.1719,277.7373 L352.1719,287.0185 L353.5938,287.331 L353.5938,288.706 Z " fill="#000000"/><text fill="#000000" font-family="sans-serif" font-size="12" font-style="italic" lengthAdjust="spacing" textLength="35" x="428.5" y="277.3281">«trait»</text><text fill="#000000" font-family="sans-serif" font-size="14" font-style="italic" lengthAdjust="spacing" textLength="161" x="365.5" y="295.81">ControllerActorCommand</text><line style="stroke:#181818;stroke-width:0.5;" x1="337.5" x2="528.5" y1="304.912" y2="304.912"/><line style="stroke:#181818;stroke-width:0.5;" x1="337.5" x2="528.5" y1="312.912" y2="312.912"/></g><!--MD5=[c0d7be9562a5d946cc96fd2495168446]
class SimulationManagerActor--><g id="elem_SimulationManagerActor"><rect codeLine="15" fill="#F1F1F1" height="61.412" id="SimulationManagerActor" rx="2.5" ry="2.5" style="stroke:#181818;stroke-width:0.5;" width="200" x="23" y="619.5"/><ellipse cx="38" cy="642.206" fill="#ADD1B2" rx="11" ry="11" style="stroke:#181818;stroke-width:1.0;"/><path d="M38.1094,637.4873 Q37.1875,637.4873 36.4531,637.7998 Q35.7344,638.1123 35.2344,638.706 Q34.7344,639.2841 34.4531,640.1591 Q34.1875,641.0341 34.1875,642.1279 Q34.1875,643.5654 34.625,644.6123 Q35.0781,645.6591 35.9219,646.206 Q36.7813,646.7529 38.0938,646.7529 Q38.875,646.7529 39.5625,646.6279 Q40.2656,646.4873 41.2656,646.1748 L41.2656,648.0498 Q40.4063,648.3779 39.6406,648.5029 Q38.8906,648.6279 37.875,648.6279 Q35.9531,648.6279 34.6406,647.831 Q33.3438,647.0185 32.6875,645.5498 Q32.0313,644.0654 32.0313,642.0966 Q32.0313,640.6748 32.4219,639.5029 Q32.8281,638.3154 33.6094,637.4404 Q34.3906,636.5654 35.5313,636.0966 Q36.6719,635.6123 38.1406,635.6123 Q39.0938,635.6123 39.9844,635.8154 Q40.8906,636.0029 41.8281,636.4716 L41,638.2529 Q40.2188,637.8779 39.5625,637.6904 Q38.9063,637.4873 38.1094,637.4873 Z " fill="#000000"/><text fill="#000000" font-family="sans-serif" font-size="12" font-style="italic" lengthAdjust="spacing" textLength="44" x="114" y="637.3281">«object»</text><text fill="#000000" font-family="sans-serif" font-size="14" lengthAdjust="spacing" textLength="168" x="52" y="655.81">SimulationManagerActor</text><line style="stroke:#181818;stroke-width:0.5;" x1="24" x2="222" y1="664.912" y2="664.912"/><line style="stroke:#181818;stroke-width:0.5;" x1="24" x2="222" y1="672.912" y2="672.912"/></g><!--MD5=[eef604bdb18d1b45df9d4305f338a309]
class EventRecorderActor--><g id="elem_EventRecorderActor"><rect codeLine="16" fill="#F1F1F1" height="61.412" id="EventRecorderActor" rx="2.5" ry="2.5" style="stroke:#181818;stroke-width:0.5;" width="165" x="40.5" y="427.5"/><ellipse cx="55.5" cy="450.206" fill="#ADD1B2" rx="11" ry="11" style="stroke:#181818;stroke-width:1.0;"/><path d="M55.6094,445.4873 Q54.6875,445.4873 53.9531,445.7998 Q53.2344,446.1123 52.7344,446.706 Q52.2344,447.2841 51.9531,448.1591 Q51.6875,449.0341 51.6875,450.1279 Q51.6875,451.5654 52.125,452.6123 Q52.5781,453.6591 53.4219,454.206 Q54.2813,454.7529 55.5938,454.7529 Q56.375,454.7529 57.0625,454.6279 Q57.7656,454.4873 58.7656,454.1748 L58.7656,456.0498 Q57.9063,456.3779 57.1406,456.5029 Q56.3906,456.6279 55.375,456.6279 Q53.4531,456.6279 52.1406,455.831 Q50.8438,455.0185 50.1875,453.5498 Q49.5313,452.0654 49.5313,450.0966 Q49.5313,448.6748 49.9219,447.5029 Q50.3281,446.3154 51.1094,445.4404 Q51.8906,444.5654 53.0313,444.0966 Q54.1719,443.6123 55.6406,443.6123 Q56.5938,443.6123 57.4844,443.8154 Q58.3906,444.0029 59.3281,444.4716 L58.5,446.2529 Q57.7188,445.8779 57.0625,445.6904 Q56.4063,445.4873 55.6094,445.4873 Z " fill="#000000"/><text fill="#000000" font-family="sans-serif" font-size="12" font-style="italic" lengthAdjust="spacing" textLength="44" x="114" y="445.3281">«object»</text><text fill="#000000" font-family="sans-serif" font-size="14" lengthAdjust="spacing" textLength="133" x="69.5" y="463.81">EventRecorderActor</text><line style="stroke:#181818;stroke-width:0.5;" x1="41.5" x2="204.5" y1="472.912" y2="472.912"/><line style="stroke:#181818;stroke-width:0.5;" x1="41.5" x2="204.5" y1="480.912" y2="480.912"/></g><!--MD5=[d150a8672f0dcefe428e42c10ccabcfb]
class CelestialBodyActor--><g id="elem_CelestialBodyActor"><rect codeLine="17" fill="#F1F1F1" height="61.412" id="CelestialBodyActor" rx="2.5" ry="2.5" style="stroke:#181818;stroke-width:0.5;" width="157" x="44.5" y="523.5"/><ellipse cx="59.5" cy="546.206" fill="#ADD1B2" rx="11" ry="11" style="stroke:#181818;stroke-width:1.0;"/><path d="M59.6094,541.4873 Q58.6875,541.4873 57.9531,541.7998 Q57.2344,542.1123 56.7344,542.706 Q56.2344,543.2841 55.9531,544.1591 Q55.6875,545.0341 55.6875,546.1279 Q55.6875,547.5654 56.125,548.6123 Q56.5781,549.6591 57.4219,550.206 Q58.2813,550.7529 59.5938,550.7529 Q60.375,550.7529 61.0625,550.6279 Q61.7656,550.4873 62.7656,550.1748 L62.7656,552.0498 Q61.9063,552.3779 61.1406,552.5029 Q60.3906,552.6279 59.375,552.6279 Q57.4531,552.6279 56.1406,551.831 Q54.8438,551.0185 54.1875,549.5498 Q53.5313,548.0654 53.5313,546.0966 Q53.5313,544.6748 53.9219,543.5029 Q54.3281,542.3154 55.1094,541.4404 Q55.8906,540.5654 57.0313,540.0966 Q58.1719,539.6123 59.6406,539.6123 Q60.5938,539.6123 61.4844,539.8154 Q62.3906,540.0029 63.3281,540.4716 L62.5,542.2529 Q61.7188,541.8779 61.0625,541.6904 Q60.4063,541.4873 59.6094,541.4873 Z " fill="#000000"/><text fill="#000000" font-family="sans-serif" font-size="12" font-style="italic" lengthAdjust="spacing" textLength="44" x="114" y="541.3281">«object»</text><text fill="#000000" font-family="sans-serif" font-size="14" lengthAdjust="spacing" textLength="125" x="73.5" y="559.81">CelestialBodyActor</text><line style="stroke:#181818;stroke-width:0.5;" x1="45.5" x2="200.5" y1="568.912" y2="568.912"/><line style="stroke:#181818;stroke-width:0.5;" x1="45.5" x2="200.5" y1="576.912" y2="576.912"/></g><!--MD5=[7b2730f45515eb6715b5210522be8bff]
class SimulationManagerActorCommand--><g id="elem_SimulationManagerActorCommand"><rect codeLine="18" fill="#F1F1F1" height="61.412" id="SimulationManagerActorCommand" rx="2.5" ry="2.5" style="stroke:#181818;stroke-width:0.5;" width="254" x="306" y="523.5"/><ellipse cx="321" cy="546.206" fill="#B4A7E5" rx="11" ry="11" style="stroke:#181818;stroke-width:1.0;"/><path d="M323.0938,552.706 L318.1875,552.706 L318.1875,551.331 L319.6094,551.0185 L319.6094,541.7373 L318.1875,541.3935 L318.1875,540.0341 L323.0938,540.0341 L323.0938,541.3935 L321.6719,541.7373 L321.6719,551.0185 L323.0938,551.331 L323.0938,552.706 Z " fill="#000000"/><text fill="#000000" font-family="sans-serif" font-size="12" font-style="italic" lengthAdjust="spacing" textLength="35" x="428.5" y="541.3281">«trait»</text><text fill="#000000" font-family="sans-serif" font-size="14" font-style="italic" lengthAdjust="spacing" textLength="222" x="335" y="559.81">SimulationManagerActorCommand</text><line style="stroke:#181818;stroke-width:0.5;" x1="307" x2="559" y1="568.912" y2="568.912"/><line style="stroke:#181818;stroke-width:0.5;" x1="307" x2="559" y1="576.912" y2="576.912"/></g><!--MD5=[c26426c71e64e6d75108cf180f840e8e]
class EventRecorderActorCommand--><g id="elem_EventRecorderActorCommand"><rect codeLine="19" fill="#F1F1F1" height="61.412" id="EventRecorderActorCommand" rx="2.5" ry="2.5" style="stroke:#181818;stroke-width:0.5;" width="219" x="323.5" y="427.5"/><ellipse cx="338.5" cy="450.206" fill="#B4A7E5" rx="11" ry="11" style="stroke:#181818;stroke-width:1.0;"/><path d="M340.5938,456.706 L335.6875,456.706 L335.6875,455.331 L337.1094,455.0185 L337.1094,445.7373 L335.6875,445.3935 L335.6875,444.0341 L340.5938,444.0341 L340.5938,445.3935 L339.1719,445.7373 L339.1719,455.0185 L340.5938,455.331 L340.5938,456.706 Z " fill="#000000"/><text fill="#000000" font-family="sans-serif" font-size="12" font-style="italic" lengthAdjust="spacing" textLength="35" x="428.5" y="445.3281">«trait»</text><text fill="#000000" font-family="sans-serif" font-size="14" font-style="italic" lengthAdjust="spacing" textLength="187" x="352.5" y="463.81">EventRecorderActorCommand</text><line style="stroke:#181818;stroke-width:0.5;" x1="324.5" x2="541.5" y1="472.912" y2="472.912"/><line style="stroke:#181818;stroke-width:0.5;" x1="324.5" x2="541.5" y1="480.912" y2="480.912"/></g><!--MD5=[5c74d48b78dfa8605a5c1647bd37e152]
class CelestialBodyActorCommand--><g id="elem_CelestialBodyActorCommand"><rect codeLine="20" fill="#F1F1F1" height="61.412" id="CelestialBodyActorCommand" rx="2.5" ry="2.5" style="stroke:#181818;stroke-width:0.5;" width="213" x="326.5" y="619.5"/><ellipse cx="341.5" cy="642.206" fill="#B4A7E5" rx="11" ry="11" style="stroke:#181818;stroke-width:1.0;"/><path d="M343.5938,648.706 L338.6875,648.706 L338.6875,647.331 L340.1094,647.0185 L340.1094,637.7373 L338.6875,637.3935 L338.6875,636.0341 L343.5938,636.0341 L343.5938,637.3935 L342.1719,637.7373 L342.1719,647.0185 L343.5938,647.331 L343.5938,648.706 Z " fill="#000000"/><text fill="#000000" font-family="sans-serif" font-size="12" font-style="italic" lengthAdjust="spacing" textLength="35" x="428.5" y="637.3281">«trait»</text><text fill="#000000" font-family="sans-serif" font-size="14" font-style="italic" lengthAdjust="spacing" textLength="181" x="355.5" y="655.81">CelestialBodyActorCommand</text><line style="stroke:#181818;stroke-width:0.5;" x1="327.5" x2="538.5" y1="664.912" y2="664.912"/><line style="stroke:#181818;stroke-width:0.5;" x1="327.5" x2="538.5" y1="672.912" y2="672.912"/></g><!--MD5=[4f9c18ad5fa549f29cfa1534c23d21c5]
class AskSimulationState--><g id="elem_AskSimulationState"><rect codeLine="22" fill="#F1F1F1" height="48" id="AskSimulationState" rx="2.5" ry="2.5" style="stroke:#181818;stroke-width:0.5;" width="161" x="622" y="523"/><ellipse cx="637" cy="539" fill="#ADD1B2" rx="11" ry="11" style="stroke:#181818;stroke-width:1.0;"/><path d="M637.1094,534.2813 Q636.1875,534.2813 635.4531,534.5938 Q634.7344,534.9063 634.2344,535.5 Q633.7344,536.0781 633.4531,536.9531 Q633.1875,537.8281 633.1875,538.9219 Q633.1875,540.3594 633.625,541.4063 Q634.0781,542.4531 634.9219,543 Q635.7813,543.5469 637.0938,543.5469 Q637.875,543.5469 638.5625,543.4219 Q639.2656,543.2813 640.2656,542.9688 L640.2656,544.8438 Q639.4063,545.1719 638.6406,545.2969 Q637.8906,545.4219 636.875,545.4219 Q634.9531,545.4219 633.6406,544.625 Q632.3438,543.8125 631.6875,542.3438 Q631.0313,540.8594 631.0313,538.8906 Q631.0313,537.4688 631.4219,536.2969 Q631.8281,535.1094 632.6094,534.2344 Q633.3906,533.3594 634.5313,532.8906 Q635.6719,532.4063 637.1406,532.4063 Q638.0938,532.4063 638.9844,532.6094 Q639.8906,532.7969 640.8281,533.2656 L640,535.0469 Q639.2188,534.6719 638.5625,534.4844 Q637.9063,534.2813 637.1094,534.2813 Z " fill="#000000"/><text fill="#000000" font-family="sans-serif" font-size="14" lengthAdjust="spacing" textLength="129" x="651" y="544.432">AskSimulationState</text><line style="stroke:#181818;stroke-width:0.5;" x1="623" x2="782" y1="555" y2="555"/><line style="stroke:#181818;stroke-width:0.5;" x1="623" x2="782" y1="563" y2="563"/></g><!--MD5=[3bf712854df45db8a5d399a64825ae7c]
class SimulationStateResponse--><g id="elem_SimulationStateResponse"><rect codeLine="23" fill="#F1F1F1" height="48" id="SimulationStateResponse" rx="2.5" ry="2.5" style="stroke:#181818;stroke-width:0.5;" width="203" x="846" y="517"/><ellipse cx="861" cy="533" fill="#ADD1B2" rx="11" ry="11" style="stroke:#181818;stroke-width:1.0;"/><path d="M861.1094,528.2813 Q860.1875,528.2813 859.4531,528.5938 Q858.7344,528.9063 858.2344,529.5 Q857.7344,530.0781 857.4531,530.9531 Q857.1875,531.8281 857.1875,532.9219 Q857.1875,534.3594 857.625,535.4063 Q858.0781,536.4531 858.9219,537 Q859.7813,537.5469 861.0938,537.5469 Q861.875,537.5469 862.5625,537.4219 Q863.2656,537.2813 864.2656,536.9688 L864.2656,538.8438 Q863.4063,539.1719 862.6406,539.2969 Q861.8906,539.4219 860.875,539.4219 Q858.9531,539.4219 857.6406,538.625 Q856.3438,537.8125 855.6875,536.3438 Q855.0313,534.8594 855.0313,532.8906 Q855.0313,531.4688 855.4219,530.2969 Q855.8281,529.1094 856.6094,528.2344 Q857.3906,527.3594 858.5313,526.8906 Q859.6719,526.4063 861.1406,526.4063 Q862.0938,526.4063 862.9844,526.6094 Q863.8906,526.7969 864.8281,527.2656 L864,529.0469 Q863.2188,528.6719 862.5625,528.4844 Q861.9063,528.2813 861.1094,528.2813 Z " fill="#000000"/><text fill="#000000" font-family="sans-serif" font-size="14" lengthAdjust="spacing" textLength="171" x="875" y="538.432">SimulationStateResponse</text><line style="stroke:#181818;stroke-width:0.5;" x1="847" x2="1048" y1="549" y2="549"/><line style="stroke:#181818;stroke-width:0.5;" x1="847" x2="1048" y1="557" y2="557"/></g><!--MD5=[1b3fbe315f7bb7f8ac1336306299c422]
class AskRecordedEvents--><g id="elem_AskRecordedEvents"><rect codeLine="25" fill="#F1F1F1" height="48" id="AskRecordedEvents" rx="2.5" ry="2.5" style="stroke:#181818;stroke-width:0.5;" width="163" x="621" y="430"/><ellipse cx="636" cy="446" fill="#ADD1B2" rx="11" ry="11" style="stroke:#181818;stroke-width:1.0;"/><path d="M636.1094,441.2813 Q635.1875,441.2813 634.4531,441.5938 Q633.7344,441.9063 633.2344,442.5 Q632.7344,443.0781 632.4531,443.9531 Q632.1875,444.8281 632.1875,445.9219 Q632.1875,447.3594 632.625,448.4063 Q633.0781,449.4531 633.9219,450 Q634.7813,450.5469 636.0938,450.5469 Q636.875,450.5469 637.5625,450.4219 Q638.2656,450.2813 639.2656,449.9688 L639.2656,451.8438 Q638.4063,452.1719 637.6406,452.2969 Q636.8906,452.4219 635.875,452.4219 Q633.9531,452.4219 632.6406,451.625 Q631.3438,450.8125 630.6875,449.3438 Q630.0313,447.8594 630.0313,445.8906 Q630.0313,444.4688 630.4219,443.2969 Q630.8281,442.1094 631.6094,441.2344 Q632.3906,440.3594 633.5313,439.8906 Q634.6719,439.4063 636.1406,439.4063 Q637.0938,439.4063 637.9844,439.6094 Q638.8906,439.7969 639.8281,440.2656 L639,442.0469 Q638.2188,441.6719 637.5625,441.4844 Q636.9063,441.2813 636.1094,441.2813 Z " fill="#000000"/><text fill="#000000" font-family="sans-serif" font-size="14" lengthAdjust="spacing" textLength="131" x="650" y="451.432">AskRecordedEvents</text><line style="stroke:#181818;stroke-width:0.5;" x1="622" x2="783" y1="462" y2="462"/><line style="stroke:#181818;stroke-width:0.5;" x1="622" x2="783" y1="470" y2="470"/></g><!--MD5=[f202920b15dd8ea05ecff6e0ef6d353b]
class RecordedEventsResponse--><g id="elem_RecordedEventsResponse"><rect codeLine="26" fill="#F1F1F1" height="48" id="RecordedEventsResponse" rx="2.5" ry="2.5" style="stroke:#181818;stroke-width:0.5;" width="205" x="845" y="428"/><ellipse cx="860" cy="444" fill="#ADD1B2" rx="11" ry="11" style="stroke:#181818;stroke-width:1.0;"/><path d="M860.1094,439.2813 Q859.1875,439.2813 858.4531,439.5938 Q857.7344,439.9063 857.2344,440.5 Q856.7344,441.0781 856.4531,441.9531 Q856.1875,442.8281 856.1875,443.9219 Q856.1875,445.3594 856.625,446.4063 Q857.0781,447.4531 857.9219,448 Q858.7813,448.5469 860.0938,448.5469 Q860.875,448.5469 861.5625,448.4219 Q862.2656,448.2813 863.2656,447.9688 L863.2656,449.8438 Q862.4063,450.1719 861.6406,450.2969 Q860.8906,450.4219 859.875,450.4219 Q857.9531,450.4219 856.6406,449.625 Q855.3438,448.8125 854.6875,447.3438 Q854.0313,445.8594 854.0313,443.8906 Q854.0313,442.4688 854.4219,441.2969 Q854.8281,440.1094 855.6094,439.2344 Q856.3906,438.3594 857.5313,437.8906 Q858.6719,437.4063 860.1406,437.4063 Q861.0938,437.4063 861.9844,437.6094 Q862.8906,437.7969 863.8281,438.2656 L863,440.0469 Q862.2188,439.6719 861.5625,439.4844 Q860.9063,439.2813 860.1094,439.2813 Z " fill="#000000"/><text fill="#000000" font-family="sans-serif" font-size="14" lengthAdjust="spacing" textLength="173" x="874" y="449.432">RecordedEventsResponse</text><line style="stroke:#181818;stroke-width:0.5;" x1="846" x2="1049" y1="460" y2="460"/><line style="stroke:#181818;stroke-width:0.5;" x1="846" x2="1049" y1="468" y2="468"/></g><!--MD5=[ab9fd69c085ca5d62292e8757b353217]
reverse link SimulationManagerActorCommand to AskSimulationState--><g id="link_SimulationManagerActorCommand_AskSimulationState"><path d="M580.46,550.17 C594.68,549.8 608.7,549.43 621.88,549.08 " fill="none" id="SimulationManagerActorCommand-backto-AskSimulationState" style="stroke:#181818;stroke-width:1.0;"/><polygon fill="none" points="580.48,557.17,560.31,550.69,580.12,543.17,580.48,557.17" style="stroke:#181818;stroke-width:1.0;"/></g><!--MD5=[0c5b0fd88907f3788b43779b05080661]
reverse link EventRecorderActorCommand to AskRecordedEvents--><g id="link_EventRecorderActorCommand_AskRecordedEvents"><path d="M562.82,456.07 C582.54,455.78 602.41,455.48 620.7,455.21 " fill="none" id="EventRecorderActorCommand-backto-AskRecordedEvents" style="stroke:#181818;stroke-width:1.0;"/><polygon fill="none" points="562.9,463.07,542.8,456.37,562.7,449.07,562.9,463.07" style="stroke:#181818;stroke-width:1.0;"/></g><!--MD5=[4a44c47846daa0f3c2d3b4ea718489a6]
link ControllerActor to SimulationStateResponse--><g id="link_ControllerActor_SimulationStateResponse"><path codeLine="29" d="M190.17,309.2 C224.53,318.72 267.3,329.88 306,338 C516.46,382.14 599.61,302.35 784,413 C822.64,436.19 809.94,465.68 845,494 C854.74,501.86 866,508.75 877.41,514.65 " fill="none" id="ControllerActor-to-SimulationStateResponse" style="stroke:#181818;stroke-width:1.0;stroke-dasharray:7.0,7.0;"/><polygon fill="#181818" points="881.96,516.94,875.7185,509.3214,877.4936,514.6925,872.1225,516.4676,881.96,516.94" style="stroke:#181818;stroke-width:1.0;"/></g><!--MD5=[3b1f60546a3b3fca307a4fa06b8d47be]
link ControllerActor to RecordedEventsResponse--><g id="link_ControllerActor_RecordedEventsResponse"><path codeLine="30" d="M190.17,268.15 C224.34,257.99 266.95,247.06 306,242 C417.95,227.49 449.29,219.91 560,242 C680.36,266.02 709.2,285.79 815,348 C852.39,369.99 890.81,401.62 916.39,424.22 " fill="none" id="ControllerActor-to-RecordedEventsResponse" style="stroke:#181818;stroke-width:1.0;stroke-dasharray:7.0,7.0;"/><polygon fill="#181818" points="920.39,427.76,916.3038,418.7988,916.6467,424.4453,911.0002,424.7882,920.39,427.76" style="stroke:#181818;stroke-width:1.0;"/></g><!--MD5=[93ff4c0e6a9fd2daf84ca9fde7d7517a]
link AskSimulationState to SimulationStateResponse--><g id="link_AskSimulationState_SimulationStateResponse"><path codeLine="31" d="M783.07,545.04 C801.41,544.58 821.21,544.09 840.48,543.62 " fill="none" id="AskSimulationState-to-SimulationStateResponse" style="stroke:#181818;stroke-width:1.0;stroke-dasharray:7.0,7.0;"/><polygon fill="#181818" points="845.9,543.48,836.8002,539.7127,840.9017,543.6085,837.0058,547.71,845.9,543.48" style="stroke:#181818;stroke-width:1.0;"/></g><!--MD5=[7003e051073c91666eb46e453f0d943e]
link AskRecordedEvents to RecordedEventsResponse--><g id="link_AskRecordedEvents_RecordedEventsResponse"><path codeLine="32" d="M784.08,453.34 C801.88,453.19 821.02,453.03 839.68,452.88 " fill="none" id="AskRecordedEvents-to-RecordedEventsResponse" style="stroke:#181818;stroke-width:1.0;stroke-dasharray:7.0,7.0;"/><polygon fill="#181818" points="844.93,452.84,835.896,448.9173,839.9302,452.8829,835.9646,456.917,844.93,452.84" style="stroke:#181818;stroke-width:1.0;"/></g><!--MD5=[c034f89de1b54242c831aa0a1319f4d1]
link ViewActor to ViewActorCommand--><g id="link_ViewActor_ViewActorCommand"><path codeLine="34" d="M172.06,72.77 C196.32,71.3 226.21,69.73 253,69 C284.15,68.16 318.34,69.04 348.42,70.44 " fill="none" id="ViewActor-to-ViewActorCommand" style="stroke:#181818;stroke-width:1.0;stroke-dasharray:7.0,7.0;"/><polygon fill="#181818" points="353.59,70.69,344.7821,66.2832,348.5952,70.4617,344.4167,74.2748,353.59,70.69" style="stroke:#181818;stroke-width:1.0;"/></g><!--MD5=[bd9d7768a2544a52ad4f4b7cc190f45a]
link ControllerActor to ControllerActorCommand--><g id="link_ControllerActor_ControllerActorCommand"><path codeLine="35" d="M190.07,290 C231.17,290 284.84,290 331.18,290 " fill="none" id="ControllerActor-to-ControllerActorCommand" style="stroke:#181818;stroke-width:1.0;stroke-dasharray:7.0,7.0;"/><polygon fill="#181818" points="336.22,290,327.22,286,331.22,290,327.22,294,336.22,290" style="stroke:#181818;stroke-width:1.0;"/></g><!--MD5=[96b2792b572537a0db2eaa193c9791dc]
link SimulationManagerActor to SimulationManagerActorCommand--><g id="link_SimulationManagerActor_SimulationManagerActorCommand"><path codeLine="36" d="M221.88,619.49 C256.04,608.84 294.48,596.86 329.04,586.09 " fill="none" id="SimulationManagerActor-to-SimulationManagerActorCommand" style="stroke:#181818;stroke-width:1.0;stroke-dasharray:7.0,7.0;"/><polygon fill="#181818" points="334.11,584.51,324.3277,583.3665,329.3361,585.9965,326.7061,591.0048,334.11,584.51" style="stroke:#181818;stroke-width:1.0;"/></g><!--MD5=[386088fffb5267c0bfa25218015fe4f2]
link CelestialBodyActor to CelestialBodyActorCommand--><g id="link_CelestialBodyActor_CelestialBodyActorCommand"><path codeLine="37" d="M201.72,578.22 C240.42,590.29 287.71,605.03 329.34,618 " fill="none" id="CelestialBodyActor-to-CelestialBodyActorCommand" style="stroke:#181818;stroke-width:1.0;stroke-dasharray:7.0,7.0;"/><polygon fill="#181818" points="334.13,619.5,326.7261,613.0052,329.3561,618.0135,324.3477,620.6435,334.13,619.5" style="stroke:#181818;stroke-width:1.0;"/></g><!--MD5=[3809f513ddf4bb8e1096388487ea975d]
link EventRecorderActor to EventRecorderActorCommand--><g id="link_EventRecorderActor_EventRecorderActorCommand"><path codeLine="38" d="M205.73,458 C240.27,458 281.08,458 318.46,458 " fill="none" id="EventRecorderActor-to-EventRecorderActorCommand" style="stroke:#181818;stroke-width:1.0;stroke-dasharray:7.0,7.0;"/><polygon fill="#181818" points="323.48,458,314.48,454,318.48,458,314.48,462,323.48,458" style="stroke:#181818;stroke-width:1.0;"/></g><!--MD5=[ed1b2bb781b87f7907adfa3f31cf740d]
link ViewActor to ControllerActorCommand--><g id="link_ViewActor_ControllerActorCommand"><path codeLine="40" d="M168.13,106.66 C225.31,146.39 324.65,215.41 383.77,256.49 " fill="none" id="ViewActor-to-ControllerActorCommand" style="stroke:#181818;stroke-width:1.0;"/><polygon fill="#181818" points="387.95,259.4,382.853,250.9726,383.8478,256.5413,378.2791,257.5361,387.95,259.4" style="stroke:#181818;stroke-width:1.0;"/><text fill="#000000" font-family="sans-serif" font-size="13" lengthAdjust="spacing" textLength="21" x="254" y="166.897">use</text></g><!--MD5=[91445bf6583017216b43f87b090042ee]
link ControllerActor to ViewActorCommand--><g id="link_ControllerActor_ViewActorCommand"><path codeLine="41" d="M144.33,259.21 C167.27,226.6 207.38,175.55 253,144 C281.81,124.08 317.22,109.03 348.93,98.23 " fill="none" id="ControllerActor-to-ViewActorCommand" style="stroke:#181818;stroke-width:1.0;"/><polygon fill="#181818" points="353.98,96.53,344.1761,95.5902,349.238,98.1154,346.7128,103.1774,353.98,96.53" style="stroke:#181818;stroke-width:1.0;"/><text fill="#000000" font-family="sans-serif" font-size="13" lengthAdjust="spacing" textLength="21" x="254" y="126.897">use</text></g><!--MD5=[8a0ff9ebd1c663c8aa1828ce19ef6296]
link ControllerActor to SimulationManagerActorCommand--><g id="link_ControllerActor_SimulationManagerActorCommand"><path codeLine="42" d="M149.15,320.66 C196.78,378.62 296.3,499.12 306,506 C313.81,511.54 322.34,516.54 331.17,521.03 " fill="none" id="ControllerActor-to-SimulationManagerActorCommand" style="stroke:#181818;stroke-width:1.0;"/><polygon fill="#181818" points="336.1,523.47,329.8196,515.8834,331.6222,521.2453,326.2602,523.0479,336.1,523.47" style="stroke:#181818;stroke-width:1.0;"/><text fill="#000000" font-family="sans-serif" font-size="13" lengthAdjust="spacing" textLength="21" x="254" y="444.897">use</text></g><!--MD5=[82a82280372d416cac50255675879557]
link SimulationManagerActor to CelestialBodyActorCommand--><g id="link_SimulationManagerActor_CelestialBodyActorCommand"><path codeLine="43" d="M223.15,650 C254.45,650 289.22,650 321.28,650 " fill="none" id="SimulationManagerActor-to-CelestialBodyActorCommand" style="stroke:#181818;stroke-width:1.0;"/><polygon fill="#181818" points="326.4,650,317.4,646,321.4,650,317.4,654,326.4,650" style="stroke:#181818;stroke-width:1.0;"/><text fill="#000000" font-family="sans-serif" font-size="13" lengthAdjust="spacing" textLength="21" x="254" y="645.897">use</text></g><!--MD5=[ead6efd1f7514d578af85bd805f99f0c]
link CelestialBodyActor to EventRecorderActorCommand--><g id="link_CelestialBodyActor_EventRecorderActorCommand"><path codeLine="44" d="M201.72,529.78 C240.42,517.71 287.71,502.97 329.34,490 " fill="none" id="CelestialBodyActor-to-EventRecorderActorCommand" style="stroke:#181818;stroke-width:1.0;"/><polygon fill="#181818" points="334.13,488.5,324.3477,487.3565,329.3561,489.9865,326.7261,494.9948,334.13,488.5" style="stroke:#181818;stroke-width:1.0;"/><text fill="#000000" font-family="sans-serif" font-size="13" lengthAdjust="spacing" textLength="21" x="254" y="503.897">use</text></g><!--MD5=[971bd152285785b2f7556bd5f0535105]
@startuml

left to right direction

component ViewComponent{
    class ViewActor << object >>
    interface ViewActorCommand << trait >>
}

component ControllerComponent{
    class ControllerActor << object >>
    interface ControllerActorCommand << trait >>
}

component ModelComponent{
    class SimulationManagerActor << object >>
    class EventRecorderActor << object >>
    class CelestialBodyActor << object >>
    interface SimulationManagerActorCommand << trait >>
    interface EventRecorderActorCommand << trait >>
    interface CelestialBodyActorCommand << trait >>
    
    class AskSimulationState extends SimulationManagerActorCommand
    class SimulationStateResponse

    class AskRecordedEvents extends EventRecorderActorCommand
    class RecordedEventsResponse
}

ControllerActor ..> SimulationStateResponse
ControllerActor ..> RecordedEventsResponse
AskSimulationState ..> SimulationStateResponse
AskRecordedEvents ..> RecordedEventsResponse

ViewActor ..> ViewActorCommand
ControllerActor ..> ControllerActorCommand
SimulationManagerActor ..> SimulationManagerActorCommand
CelestialBodyActor ..> CelestialBodyActorCommand
EventRecorderActor ..> EventRecorderActorCommand

ViewActor - -> ControllerActorCommand : use
ControllerActor - -> ViewActorCommand : use
ControllerActor - -> SimulationManagerActorCommand : use
SimulationManagerActor - -> CelestialBodyActorCommand : use
CelestialBodyActor - -> EventRecorderActorCommand : use

@enduml

PlantUML version 1.2022.12(Sun Oct 23 20:12:26 CEST 2022)
(GPL source distribution)
Java Runtime: OpenJDK Runtime Environment
JVM: OpenJDK 64-Bit Server VM
Default Encoding: UTF-8
Language: en
Country: US
--></g></svg>