<?xml version="1.0" encoding="UTF-8" standalone="no"?><svg xmlns="http://www.w3.org/2000/svg" xmlns:xlink="http://www.w3.org/1999/xlink" contentStyleType="text/css" height="317px" preserveAspectRatio="none" style="width:908px;height:317px;background:#FFFFFF;" version="1.1" viewBox="0 0 908 317" width="908px" zoomAndPan="magnify"><defs/><g><!--MD5=[d150a8672f0dcefe428e42c10ccabcfb]
class CelestialBodyActor--><g id="elem_CelestialBodyActor"><rect codeLine="2" fill="#F1F1F1" height="61.412" id="CelestialBodyActor" rx="2.5" ry="2.5" style="stroke:#181818;stroke-width:0.5;" width="157" x="465" y="7"/><ellipse cx="480" cy="29.706" fill="#ADD1B2" rx="11" ry="11" style="stroke:#181818;stroke-width:1.0;"/><path d="M480.1094,24.9873 Q479.1875,24.9873 478.4531,25.2998 Q477.7344,25.6123 477.2344,26.206 Q476.7344,26.7841 476.4531,27.6591 Q476.1875,28.5341 476.1875,29.6279 Q476.1875,31.0654 476.625,32.1123 Q477.0781,33.1591 477.9219,33.706 Q478.7813,34.2529 480.0938,34.2529 Q480.875,34.2529 481.5625,34.1279 Q482.2656,33.9873 483.2656,33.6748 L483.2656,35.5498 Q482.4063,35.8779 481.6406,36.0029 Q480.8906,36.1279 479.875,36.1279 Q477.9531,36.1279 476.6406,35.331 Q475.3438,34.5185 474.6875,33.0498 Q474.0313,31.5654 474.0313,29.5966 Q474.0313,28.1748 474.4219,27.0029 Q474.8281,25.8154 475.6094,24.9404 Q476.3906,24.0654 477.5313,23.5966 Q478.6719,23.1123 480.1406,23.1123 Q481.0938,23.1123 481.9844,23.3154 Q482.8906,23.5029 483.8281,23.9716 L483,25.7529 Q482.2188,25.3779 481.5625,25.1904 Q480.9063,24.9873 480.1094,24.9873 Z " fill="#000000"/><text fill="#000000" font-family="sans-serif" font-size="12" font-style="italic" lengthAdjust="spacing" textLength="44" x="534.5" y="24.8281">«object»</text><text fill="#000000" font-family="sans-serif" font-size="14" lengthAdjust="spacing" textLength="125" x="494" y="43.31">CelestialBodyActor</text><line style="stroke:#181818;stroke-width:0.5;" x1="466" x2="621" y1="52.412" y2="52.412"/><line style="stroke:#181818;stroke-width:0.5;" x1="466" x2="621" y1="60.412" y2="60.412"/></g><!--MD5=[5c74d48b78dfa8605a5c1647bd37e152]
class CelestialBodyActorCommand--><g id="elem_CelestialBodyActorCommand"><rect codeLine="3" fill="#F1F1F1" height="61.412" id="CelestialBodyActorCommand" rx="2.5" ry="2.5" style="stroke:#181818;stroke-width:0.5;" width="213" x="437" y="128"/><ellipse cx="452" cy="150.706" fill="#B4A7E5" rx="11" ry="11" style="stroke:#181818;stroke-width:1.0;"/><path d="M454.0938,157.206 L449.1875,157.206 L449.1875,155.831 L450.6094,155.5185 L450.6094,146.2373 L449.1875,145.8935 L449.1875,144.5341 L454.0938,144.5341 L454.0938,145.8935 L452.6719,146.2373 L452.6719,155.5185 L454.0938,155.831 L454.0938,157.206 Z " fill="#000000"/><text fill="#000000" font-family="sans-serif" font-size="12" font-style="italic" lengthAdjust="spacing" textLength="35" x="539" y="145.8281">«trait»</text><text fill="#000000" font-family="sans-serif" font-size="14" font-style="italic" lengthAdjust="spacing" textLength="181" x="466" y="164.31">CelestialBodyActorCommand</text><line style="stroke:#181818;stroke-width:0.5;" x1="438" x2="649" y1="173.412" y2="173.412"/><line style="stroke:#181818;stroke-width:0.5;" x1="438" x2="649" y1="181.412" y2="181.412"/></g><!--MD5=[c1413c0db6d73e26faad500c67d37c34]
class GetCelestialBodyState--><g id="elem_GetCelestialBodyState"><rect codeLine="4" fill="#F1F1F1" height="48" id="GetCelestialBodyState" rx="2.5" ry="2.5" style="stroke:#181818;stroke-width:0.5;" width="179" x="7" y="255.5"/><ellipse cx="22" cy="271.5" fill="#ADD1B2" rx="11" ry="11" style="stroke:#181818;stroke-width:1.0;"/><path d="M22.1094,266.7813 Q21.1875,266.7813 20.4531,267.0938 Q19.7344,267.4063 19.2344,268 Q18.7344,268.5781 18.4531,269.4531 Q18.1875,270.3281 18.1875,271.4219 Q18.1875,272.8594 18.625,273.9063 Q19.0781,274.9531 19.9219,275.5 Q20.7813,276.0469 22.0938,276.0469 Q22.875,276.0469 23.5625,275.9219 Q24.2656,275.7813 25.2656,275.4688 L25.2656,277.3438 Q24.4063,277.6719 23.6406,277.7969 Q22.8906,277.9219 21.875,277.9219 Q19.9531,277.9219 18.6406,277.125 Q17.3438,276.3125 16.6875,274.8438 Q16.0313,273.3594 16.0313,271.3906 Q16.0313,269.9688 16.4219,268.7969 Q16.8281,267.6094 17.6094,266.7344 Q18.3906,265.8594 19.5313,265.3906 Q20.6719,264.9063 22.1406,264.9063 Q23.0938,264.9063 23.9844,265.1094 Q24.8906,265.2969 25.8281,265.7656 L25,267.5469 Q24.2188,267.1719 23.5625,266.9844 Q22.9063,266.7813 22.1094,266.7813 Z " fill="#000000"/><text fill="#000000" font-family="sans-serif" font-size="14" lengthAdjust="spacing" textLength="147" x="36" y="276.932">GetCelestialBodyState</text><line style="stroke:#181818;stroke-width:0.5;" x1="8" x2="185" y1="287.5" y2="287.5"/><line style="stroke:#181818;stroke-width:0.5;" x1="8" x2="185" y1="295.5" y2="295.5"/></g><!--MD5=[96e4c771cf6483981cd7ebb5d8aa556d]
class UpdateCelestialBodyType--><g id="elem_UpdateCelestialBodyType"><rect codeLine="5" fill="#F1F1F1" height="48" id="UpdateCelestialBodyType" rx="2.5" ry="2.5" style="stroke:#181818;stroke-width:0.5;" width="203" x="221" y="255.5"/><ellipse cx="236" cy="271.5" fill="#ADD1B2" rx="11" ry="11" style="stroke:#181818;stroke-width:1.0;"/><path d="M236.1094,266.7813 Q235.1875,266.7813 234.4531,267.0938 Q233.7344,267.4063 233.2344,268 Q232.7344,268.5781 232.4531,269.4531 Q232.1875,270.3281 232.1875,271.4219 Q232.1875,272.8594 232.625,273.9063 Q233.0781,274.9531 233.9219,275.5 Q234.7813,276.0469 236.0938,276.0469 Q236.875,276.0469 237.5625,275.9219 Q238.2656,275.7813 239.2656,275.4688 L239.2656,277.3438 Q238.4063,277.6719 237.6406,277.7969 Q236.8906,277.9219 235.875,277.9219 Q233.9531,277.9219 232.6406,277.125 Q231.3438,276.3125 230.6875,274.8438 Q230.0313,273.3594 230.0313,271.3906 Q230.0313,269.9688 230.4219,268.7969 Q230.8281,267.6094 231.6094,266.7344 Q232.3906,265.8594 233.5313,265.3906 Q234.6719,264.9063 236.1406,264.9063 Q237.0938,264.9063 237.9844,265.1094 Q238.8906,265.2969 239.8281,265.7656 L239,267.5469 Q238.2188,267.1719 237.5625,266.9844 Q236.9063,266.7813 236.1094,266.7813 Z " fill="#000000"/><text fill="#000000" font-family="sans-serif" font-size="14" lengthAdjust="spacing" textLength="171" x="250" y="276.932">UpdateCelestialBodyType</text><line style="stroke:#181818;stroke-width:0.5;" x1="222" x2="423" y1="287.5" y2="287.5"/><line style="stroke:#181818;stroke-width:0.5;" x1="222" x2="423" y1="295.5" y2="295.5"/></g><!--MD5=[24a9f41bdf3eb999fbfc9ef2b11b2df4]
class MoveToNextPosition--><g id="elem_MoveToNextPosition"><rect codeLine="6" fill="#F1F1F1" height="48" id="MoveToNextPosition" rx="2.5" ry="2.5" style="stroke:#181818;stroke-width:0.5;" width="168" x="459.5" y="255.5"/><ellipse cx="474.5" cy="271.5" fill="#ADD1B2" rx="11" ry="11" style="stroke:#181818;stroke-width:1.0;"/><path d="M474.6094,266.7813 Q473.6875,266.7813 472.9531,267.0938 Q472.2344,267.4063 471.7344,268 Q471.2344,268.5781 470.9531,269.4531 Q470.6875,270.3281 470.6875,271.4219 Q470.6875,272.8594 471.125,273.9063 Q471.5781,274.9531 472.4219,275.5 Q473.2813,276.0469 474.5938,276.0469 Q475.375,276.0469 476.0625,275.9219 Q476.7656,275.7813 477.7656,275.4688 L477.7656,277.3438 Q476.9063,277.6719 476.1406,277.7969 Q475.3906,277.9219 474.375,277.9219 Q472.4531,277.9219 471.1406,277.125 Q469.8438,276.3125 469.1875,274.8438 Q468.5313,273.3594 468.5313,271.3906 Q468.5313,269.9688 468.9219,268.7969 Q469.3281,267.6094 470.1094,266.7344 Q470.8906,265.8594 472.0313,265.3906 Q473.1719,264.9063 474.6406,264.9063 Q475.5938,264.9063 476.4844,265.1094 Q477.3906,265.2969 478.3281,265.7656 L477.5,267.5469 Q476.7188,267.1719 476.0625,266.9844 Q475.4063,266.7813 474.6094,266.7813 Z " fill="#000000"/><text fill="#000000" font-family="sans-serif" font-size="14" lengthAdjust="spacing" textLength="136" x="488.5" y="276.932">MoveToNextPosition</text><line style="stroke:#181818;stroke-width:0.5;" x1="460.5" x2="626.5" y1="287.5" y2="287.5"/><line style="stroke:#181818;stroke-width:0.5;" x1="460.5" x2="626.5" y1="295.5" y2="295.5"/></g><!--MD5=[f1e3e72b469cf45011a6b38c081db7e4]
class SolveCollisions--><g id="elem_SolveCollisions"><rect codeLine="7" fill="#F1F1F1" height="48" id="SolveCollisions" rx="2.5" ry="2.5" style="stroke:#181818;stroke-width:0.5;" width="131" x="663" y="255.5"/><ellipse cx="678" cy="271.5" fill="#ADD1B2" rx="11" ry="11" style="stroke:#181818;stroke-width:1.0;"/><path d="M678.1094,266.7813 Q677.1875,266.7813 676.4531,267.0938 Q675.7344,267.4063 675.2344,268 Q674.7344,268.5781 674.4531,269.4531 Q674.1875,270.3281 674.1875,271.4219 Q674.1875,272.8594 674.625,273.9063 Q675.0781,274.9531 675.9219,275.5 Q676.7813,276.0469 678.0938,276.0469 Q678.875,276.0469 679.5625,275.9219 Q680.2656,275.7813 681.2656,275.4688 L681.2656,277.3438 Q680.4063,277.6719 679.6406,277.7969 Q678.8906,277.9219 677.875,277.9219 Q675.9531,277.9219 674.6406,277.125 Q673.3438,276.3125 672.6875,274.8438 Q672.0313,273.3594 672.0313,271.3906 Q672.0313,269.9688 672.4219,268.7969 Q672.8281,267.6094 673.6094,266.7344 Q674.3906,265.8594 675.5313,265.3906 Q676.6719,264.9063 678.1406,264.9063 Q679.0938,264.9063 679.9844,265.1094 Q680.8906,265.2969 681.8281,265.7656 L681,267.5469 Q680.2188,267.1719 679.5625,266.9844 Q678.9063,266.7813 678.1094,266.7813 Z " fill="#000000"/><text fill="#000000" font-family="sans-serif" font-size="14" lengthAdjust="spacing" textLength="99" x="692" y="276.932">SolveCollisions</text><line style="stroke:#181818;stroke-width:0.5;" x1="664" x2="793" y1="287.5" y2="287.5"/><line style="stroke:#181818;stroke-width:0.5;" x1="664" x2="793" y1="295.5" y2="295.5"/></g><!--MD5=[b8167881244aa18e496b6137450c1fca]
class Kill--><g id="elem_Kill"><rect codeLine="8" fill="#F1F1F1" height="61.412" id="Kill" rx="2.5" ry="2.5" style="stroke:#181818;stroke-width:0.5;" width="72" x="829.5" y="249"/><ellipse cx="844.5" cy="271.706" fill="#ADD1B2" rx="11" ry="11" style="stroke:#181818;stroke-width:1.0;"/><path d="M844.6094,266.9873 Q843.6875,266.9873 842.9531,267.2998 Q842.2344,267.6123 841.7344,268.206 Q841.2344,268.7841 840.9531,269.6591 Q840.6875,270.5341 840.6875,271.6279 Q840.6875,273.0654 841.125,274.1123 Q841.5781,275.1591 842.4219,275.706 Q843.2813,276.2529 844.5938,276.2529 Q845.375,276.2529 846.0625,276.1279 Q846.7656,275.9873 847.7656,275.6748 L847.7656,277.5498 Q846.9063,277.8779 846.1406,278.0029 Q845.3906,278.1279 844.375,278.1279 Q842.4531,278.1279 841.1406,277.331 Q839.8438,276.5185 839.1875,275.0498 Q838.5313,273.5654 838.5313,271.5966 Q838.5313,270.1748 838.9219,269.0029 Q839.3281,267.8154 840.1094,266.9404 Q840.8906,266.0654 842.0313,265.5966 Q843.1719,265.1123 844.6406,265.1123 Q845.5938,265.1123 846.4844,265.3154 Q847.3906,265.5029 848.3281,265.9716 L847.5,267.7529 Q846.7188,267.3779 846.0625,267.1904 Q845.4063,266.9873 844.6094,266.9873 Z " fill="#000000"/><text fill="#000000" font-family="sans-serif" font-size="12" font-style="italic" lengthAdjust="spacing" textLength="44" x="856.5" y="266.8281">«object»</text><text fill="#000000" font-family="sans-serif" font-size="14" lengthAdjust="spacing" textLength="21" x="868" y="285.31">Kill</text><line style="stroke:#181818;stroke-width:0.5;" x1="830.5" x2="900.5" y1="294.412" y2="294.412"/><line style="stroke:#181818;stroke-width:0.5;" x1="830.5" x2="900.5" y1="302.412" y2="302.412"/></g><!--MD5=[1edf62426cbe495dae627b4344775ed4]
reverse link CelestialBodyActorCommand to GetCelestialBodyState--><g id="link_CelestialBodyActorCommand_GetCelestialBodyState"><path d="M417.59,192.27 C353.45,209.06 274.27,229.93 203.5,249 C195.78,251.08 187.75,253.26 179.71,255.46 " fill="none" id="CelestialBodyActorCommand-backto-GetCelestialBodyState" style="stroke:#181818;stroke-width:1.0;"/><polygon fill="none" points="415.86,185.49,436.98,187.2,419.41,199.03,415.86,185.49" style="stroke:#181818;stroke-width:1.0;"/></g><!--MD5=[aeff93d03bdc5858d789022cc82dad58]
reverse link CelestialBodyActorCommand to UpdateCelestialBodyType--><g id="link_CelestialBodyActorCommand_UpdateCelestialBodyType"><path d="M470.92,198.58 C435.97,217.4 395.26,239.32 365.32,255.44 " fill="none" id="CelestialBodyActorCommand-backto-UpdateCelestialBodyType" style="stroke:#181818;stroke-width:1.0;"/><polygon fill="none" points="467.66,192.39,488.59,189.07,474.3,204.71,467.66,192.39" style="stroke:#181818;stroke-width:1.0;"/></g><!--MD5=[21df48ee5f0e118728cb8db3d6292809]
reverse link CelestialBodyActorCommand to MoveToNextPosition--><g id="link_CelestialBodyActorCommand_MoveToNextPosition"><path d="M543.5,209.34 C543.5,225.37 543.5,242.37 543.5,255.5 " fill="none" id="CelestialBodyActorCommand-backto-MoveToNextPosition" style="stroke:#181818;stroke-width:1.0;"/><polygon fill="none" points="536.5,209.22,543.5,189.22,550.5,209.22,536.5,209.22" style="stroke:#181818;stroke-width:1.0;"/></g><!--MD5=[8d73ceb3d2c39b1de764df13dfb7dc09]
reverse link CelestialBodyActorCommand to SolveCollisions--><g id="link_CelestialBodyActorCommand_SolveCollisions"><path d="M606.91,200.29 C635.6,218.74 668.43,239.86 692.74,255.5 " fill="none" id="CelestialBodyActorCommand-backto-SolveCollisions" style="stroke:#181818;stroke-width:1.0;"/><polygon fill="none" points="602.74,205.93,589.71,189.22,610.31,194.15,602.74,205.93" style="stroke:#181818;stroke-width:1.0;"/></g><!--MD5=[c89fb08948515c7f430cdd38a74317a1]
reverse link CelestialBodyActorCommand to Kill--><g id="link_CelestialBodyActorCommand_Kill"><path d="M665.1,195.06 C711.6,209.97 764.67,228.58 811.5,249 C817.38,251.56 823.46,254.54 829.34,257.61 " fill="none" id="CelestialBodyActorCommand-backto-Kill" style="stroke:#181818;stroke-width:1.0;"/><polygon fill="none" points="662.92,201.72,645.96,189.02,667.13,188.37,662.92,201.72" style="stroke:#181818;stroke-width:1.0;"/></g><!--MD5=[386088fffb5267c0bfa25218015fe4f2]
link CelestialBodyActor to CelestialBodyActorCommand--><g id="link_CelestialBodyActor_CelestialBodyActorCommand"><path codeLine="10" d="M543.5,68.22 C543.5,84.69 543.5,105.26 543.5,122.51 " fill="none" id="CelestialBodyActor-to-CelestialBodyActorCommand" style="stroke:#181818;stroke-width:1.0;stroke-dasharray:7.0,7.0;"/><polygon fill="#181818" points="543.5,127.74,547.5,118.74,543.5,122.74,539.5,118.74,543.5,127.74" style="stroke:#181818;stroke-width:1.0;"/></g><!--MD5=[61bdc4497853554ba5e375076717d470]
@startuml

class CelestialBodyActor << object >>
interface CelestialBodyActorCommand << trait >>
class GetCelestialBodyState extends CelestialBodyActorCommand
class UpdateCelestialBodyType extends CelestialBodyActorCommand
class MoveToNextPosition extends CelestialBodyActorCommand
class SolveCollisions extends CelestialBodyActorCommand
class Kill << object >> extends CelestialBodyActorCommand

CelestialBodyActor ..> CelestialBodyActorCommand

@enduml

PlantUML version 1.2022.12(Sun Oct 23 20:12:26 CEST 2022)
(GPL source distribution)
Java Runtime: OpenJDK Runtime Environment
JVM: OpenJDK 64-Bit Server VM
Default Encoding: UTF-8
Language: en
Country: US
--></g></svg>