<?xml version="1.0" encoding="UTF-8" standalone="no"?><svg xmlns="http://www.w3.org/2000/svg" xmlns:xlink="http://www.w3.org/1999/xlink" contentStyleType="text/css" height="385px" preserveAspectRatio="none" style="width:387px;height:385px;background:#FFFFFF;" version="1.1" viewBox="0 0 387 385" width="387px" zoomAndPan="magnify"><defs/><g><!--MD5=[3e9e85c672fedfc09a4eb00e1bd53162]
class Intersection--><g id="elem_Intersection"><rect codeLine="1" fill="#F1F1F1" height="64.2969" id="Intersection" rx="2.5" ry="2.5" style="stroke:#181818;stroke-width:0.5;" width="204" x="7" y="314"/><ellipse cx="62.75" cy="330" fill="#B4A7E5" rx="11" ry="11" style="stroke:#181818;stroke-width:1.0;"/><path d="M63.7031,326.7813 L65.4219,326.7813 C65.8125,326.7813 66,326.75 66.125,326.6719 C66.3906,326.5156 66.5313,326.2344 66.5313,325.9375 C66.5313,325.6719 66.4219,325.4063 66.1875,325.2344 C66.0156,325.125 65.875,325.0938 65.4219,325.0938 L60.2813,325.0938 C59.8438,325.0938 59.7188,325.1094 59.5625,325.2031 C59.3125,325.3594 59.1563,325.6563 59.1563,325.9375 C59.1563,326.2188 59.2969,326.4688 59.5156,326.6406 C59.6719,326.75 59.8594,326.7813 60.2813,326.7813 L62,326.7813 L62,333.2969 L60.2813,333.2969 C59.8438,333.2969 59.7188,333.3125 59.5625,333.4219 C59.3125,333.5781 59.1563,333.8594 59.1563,334.1563 C59.1563,334.4063 59.2969,334.6719 59.5156,334.8281 C59.6719,334.9531 59.875,335 60.2813,335 L65.4219,335 C66.1719,335 66.5313,334.7188 66.5313,334.1563 C66.5313,333.875 66.4219,333.625 66.1875,333.4531 C66.0156,333.3281 65.875,333.2969 65.4219,333.2969 L63.7031,333.2969 L63.7031,326.7813 Z " fill="#000000"/><text fill="#000000" font-family="sans-serif" font-size="14" font-style="italic" lengthAdjust="spacing" textLength="84" x="83.25" y="334.8467">Intersection</text><line style="stroke:#181818;stroke-width:0.5;" x1="8" x2="210" y1="346" y2="346"/><line style="stroke:#181818;stroke-width:0.5;" x1="8" x2="210" y1="354" y2="354"/><ellipse cx="18" cy="367.6484" fill="#84BE84" rx="3" ry="3" style="stroke:#038048;stroke-width:1.0;"/><text fill="#000000" font-family="sans-serif" font-size="14" lengthAdjust="spacing" textLength="178" x="27" y="370.9951">intersects(A, A): Boolean</text></g><!--MD5=[0e25faa1fcd99a17261c68cab7355ee4]
class Impact--><g id="elem_Impact"><rect codeLine="4" fill="#F1F1F1" height="64.2969" id="Impact" rx="2.5" ry="2.5" style="stroke:#181818;stroke-width:0.5;" width="134" x="246" y="314"/><ellipse cx="284.85" cy="330" fill="#B4A7E5" rx="11" ry="11" style="stroke:#181818;stroke-width:1.0;"/><path d="M285.8031,326.7813 L287.5219,326.7813 C287.9125,326.7813 288.1,326.75 288.225,326.6719 C288.4906,326.5156 288.6313,326.2344 288.6313,325.9375 C288.6313,325.6719 288.5219,325.4063 288.2875,325.2344 C288.1156,325.125 287.975,325.0938 287.5219,325.0938 L282.3813,325.0938 C281.9438,325.0938 281.8188,325.1094 281.6625,325.2031 C281.4125,325.3594 281.2563,325.6563 281.2563,325.9375 C281.2563,326.2188 281.3969,326.4688 281.6156,326.6406 C281.7719,326.75 281.9594,326.7813 282.3813,326.7813 L284.1,326.7813 L284.1,333.2969 L282.3813,333.2969 C281.9438,333.2969 281.8188,333.3125 281.6625,333.4219 C281.4125,333.5781 281.2563,333.8594 281.2563,334.1563 C281.2563,334.4063 281.3969,334.6719 281.6156,334.8281 C281.7719,334.9531 281.975,335 282.3813,335 L287.5219,335 C288.2719,335 288.6313,334.7188 288.6313,334.1563 C288.6313,333.875 288.5219,333.625 288.2875,333.4531 C288.1156,333.3281 287.975,333.2969 287.5219,333.2969 L285.8031,333.2969 L285.8031,326.7813 Z " fill="#000000"/><text fill="#000000" font-family="sans-serif" font-size="14" font-style="italic" lengthAdjust="spacing" textLength="49" x="304.15" y="334.8467">Impact</text><line style="stroke:#181818;stroke-width:0.5;" x1="247" x2="379" y1="346" y2="346"/><line style="stroke:#181818;stroke-width:0.5;" x1="247" x2="379" y1="354" y2="354"/><ellipse cx="257" cy="367.6484" fill="#84BE84" rx="3" ry="3" style="stroke:#038048;stroke-width:1.0;"/><text fill="#000000" font-family="sans-serif" font-size="14" lengthAdjust="spacing" textLength="108" x="266" y="370.9951">impact(A, A): A</text></g><!--MD5=[ece149da452347af8209f8dd7d32c22e]
class CollisionEngine--><g id="elem_CollisionEngine"><rect codeLine="7" fill="#F1F1F1" height="105.1563" id="CollisionEngine" rx="2.5" ry="2.5" style="stroke:#181818;stroke-width:0.5;" width="160" x="131" y="132"/><ellipse cx="154.55" cy="152.1328" fill="#ADD1B2" rx="11" ry="11" style="stroke:#181818;stroke-width:1.0;"/><path d="M156.8938,147.8047 C155.9563,147.3672 155.3625,147.2266 154.4875,147.2266 C151.8625,147.2266 149.8625,149.3047 149.8625,152.0234 L149.8625,153.1484 C149.8625,155.7266 151.9719,157.6172 154.8625,157.6172 C156.0813,157.6172 157.2375,157.3203 157.9875,156.7734 C158.5656,156.3672 158.8938,155.9141 158.8938,155.5234 C158.8938,155.0703 158.5031,154.6797 158.0344,154.6797 C157.8156,154.6797 157.6125,154.7578 157.425,154.9453 C156.9719,155.4297 156.9719,155.4297 156.7844,155.5234 C156.3625,155.7891 155.675,155.9141 154.9094,155.9141 C152.8625,155.9141 151.5656,154.8203 151.5656,153.1172 L151.5656,152.0234 C151.5656,150.2422 152.8156,148.9297 154.55,148.9297 C155.1281,148.9297 155.7375,149.0859 156.2063,149.3359 C156.6906,149.6172 156.8625,149.8359 156.9563,150.2422 C157.0188,150.6484 157.05,150.7734 157.1906,150.8984 C157.3313,151.0391 157.5656,151.1484 157.7844,151.1484 C158.05,151.1484 158.3156,151.0078 158.4875,150.7891 C158.5969,150.6328 158.6281,150.4453 158.6281,150.0234 L158.6281,148.6016 C158.6281,148.1641 158.6125,148.0391 158.5188,147.8828 C158.3625,147.6172 158.0813,147.4766 157.7844,147.4766 C157.4875,147.4766 157.2844,147.5703 157.0656,147.8828 L156.8938,147.8047 Z " fill="#000000"/><text fill="#000000" font-family="sans-serif" font-size="12" font-style="italic" lengthAdjust="spacing" textLength="51" x="199.45" y="148.1387">«object»</text><text fill="#000000" font-family="sans-serif" font-size="14" lengthAdjust="spacing" textLength="109" x="170.45" y="163.9639">CollisionEngine</text><line style="stroke:#181818;stroke-width:0.5;" x1="132" x2="290" y1="172.2656" y2="172.2656"/><line style="stroke:#181818;stroke-width:0.5;" x1="132" x2="290" y1="180.2656" y2="180.2656"/><ellipse cx="142" cy="193.9141" fill="#84BE84" rx="3" ry="3" style="stroke:#038048;stroke-width:1.0;"/><text fill="#000000" font-family="sans-serif" font-size="14" lengthAdjust="spacing" textLength="111" x="151" y="197.2607">collides(A, A): A</text><ellipse cx="142" cy="210.2109" fill="#84BE84" rx="3" ry="3" style="stroke:#038048;stroke-width:1.0;"/><text fill="#000000" font-family="sans-serif" font-size="14" lengthAdjust="spacing" textLength="104" x="151" y="213.5576">impact(A,A): A</text><ellipse cx="142" cy="226.5078" fill="#84BE84" rx="3" ry="3" style="stroke:#038048;stroke-width:1.0;"/><text fill="#000000" font-family="sans-serif" font-size="14" lengthAdjust="spacing" textLength="134" x="151" y="229.8545">impactMany(A*): A</text></g><!--MD5=[e07e492311cbb0434edc2dde223c9c63]
class CollisionMonad--><g id="elem_CollisionMonad"><rect fill="#F1F1F1" height="48" id="CollisionMonad" rx="2.5" ry="2.5" style="stroke:#181818;stroke-width:0.5;" width="139" x="141.5" y="7"/><ellipse cx="156.5" cy="23" fill="#ADD1B2" rx="11" ry="11" style="stroke:#181818;stroke-width:1.0;"/><path d="M158.8438,18.6719 C157.9063,18.2344 157.3125,18.0938 156.4375,18.0938 C153.8125,18.0938 151.8125,20.1719 151.8125,22.8906 L151.8125,24.0156 C151.8125,26.5938 153.9219,28.4844 156.8125,28.4844 C158.0313,28.4844 159.1875,28.1875 159.9375,27.6406 C160.5156,27.2344 160.8438,26.7813 160.8438,26.3906 C160.8438,25.9375 160.4531,25.5469 159.9844,25.5469 C159.7656,25.5469 159.5625,25.625 159.375,25.8125 C158.9219,26.2969 158.9219,26.2969 158.7344,26.3906 C158.3125,26.6563 157.625,26.7813 156.8594,26.7813 C154.8125,26.7813 153.5156,25.6875 153.5156,23.9844 L153.5156,22.8906 C153.5156,21.1094 154.7656,19.7969 156.5,19.7969 C157.0781,19.7969 157.6875,19.9531 158.1563,20.2031 C158.6406,20.4844 158.8125,20.7031 158.9063,21.1094 C158.9688,21.5156 159,21.6406 159.1406,21.7656 C159.2813,21.9063 159.5156,22.0156 159.7344,22.0156 C160,22.0156 160.2656,21.875 160.4375,21.6563 C160.5469,21.5 160.5781,21.3125 160.5781,20.8906 L160.5781,19.4688 C160.5781,19.0313 160.5625,18.9063 160.4688,18.75 C160.3125,18.4844 160.0313,18.3438 159.7344,18.3438 C159.4375,18.3438 159.2344,18.4375 159.0156,18.75 L158.8438,18.6719 Z " fill="#000000"/><text fill="#000000" font-family="sans-serif" font-size="14" lengthAdjust="spacing" textLength="107" x="170.5" y="27.8467">CollisionMonad</text><line style="stroke:#181818;stroke-width:0.5;" x1="142.5" x2="279.5" y1="39" y2="39"/><line style="stroke:#181818;stroke-width:0.5;" x1="142.5" x2="279.5" y1="47" y2="47"/></g><!--MD5=[4bc31bef50377a0d3ed55fd8eeaadc10]
link CollisionMonad to CollisionEngine--><g id="link_CollisionMonad_CollisionEngine"><path codeLine="12" d="M211,55.01 C211,74.02 211,101.83 211,126.719 " fill="none" id="CollisionMonad-to-CollisionEngine" style="stroke:#181818;stroke-width:1.0;"/><polygon fill="#181818" points="211,131.981,215,122.981,211,126.981,207,122.981,211,131.981" style="stroke:#181818;stroke-width:1.0;"/><text fill="#000000" font-family="sans-serif" font-size="13" lengthAdjust="spacing" textLength="23" x="212" y="98.0669">use</text></g><!--MD5=[9573356278e0ea8a4121c43af9de83be]
link CollisionEngine to Intersection--><g id="link_CollisionEngine_Intersection"><path codeLine="13" d="M177.884,237.285 C162.786,260.893 145.294,288.2455 131.715,309.4794 " fill="none" id="CollisionEngine-to-Intersection" style="stroke:#181818;stroke-width:1.0;"/><polygon fill="#181818" points="128.879,313.9141,137.0974,308.4866,131.5726,309.7017,130.3575,304.1769,128.879,313.9141" style="stroke:#181818;stroke-width:1.0;"/><text fill="#000000" font-family="sans-serif" font-size="13" lengthAdjust="spacing" textLength="23" x="158" y="280.0669">use</text></g><!--MD5=[4b0420310f3fe6cb45884909fb2af998]
link CollisionEngine to Impact--><g id="link_CollisionEngine_Impact"><path codeLine="14" d="M244.116,237.285 C259.214,260.893 276.706,288.2455 290.285,309.4794 " fill="none" id="CollisionEngine-to-Impact" style="stroke:#181818;stroke-width:1.0;"/><polygon fill="#181818" points="293.121,313.9141,291.6425,304.1769,290.4274,309.7017,284.9026,308.4866,293.121,313.9141" style="stroke:#181818;stroke-width:1.0;"/><text fill="#000000" font-family="sans-serif" font-size="13" lengthAdjust="spacing" textLength="23" x="272" y="280.0669">use</text></g><!--MD5=[5308545bf3f24a4c532d65c5f8f21027]
@startuml
interface Intersection {
+ intersects(A, A): Boolean
}
interface Impact {
+ impact(A, A): A
}
class CollisionEngine <<object>> {
+ collides(A, A): A
+ impact(A,A): A
+ impactMany(A*): A
}
CollisionMonad - -> CollisionEngine : use
CollisionEngine - -> Intersection : use
CollisionEngine - -> Impact : use
@enduml

PlantUML version 1.2022.13beta8(Unknown compile time)
(GPL source distribution)
Java Runtime: Java(TM) SE Runtime Environment
JVM: Java HotSpot(TM) 64-Bit Server VM
Default Encoding: UTF-8
Language: en
Country: US
--></g></svg>