<?xml version="1.0" encoding="UTF-8" standalone="no"?><svg xmlns="http://www.w3.org/2000/svg" xmlns:xlink="http://www.w3.org/1999/xlink" contentStyleType="text/css" height="640px" preserveAspectRatio="none" style="width:740px;height:640px;background:#FFFFFF;" version="1.1" viewBox="0 0 740 640" width="740px" zoomAndPan="magnify"><defs/><g><!--MD5=[5307704602e8dc5fa8088abdeab365c6]
entity EntityIdentifier.pl--><g id="elem_EntityIdentifier.pl"><path d="M583.5,599.5 L583.5,630.7969 A2.5,2.5 0 0 0 586,633.2969 L731,633.2969 A2.5,2.5 0 0 0 733.5,630.7969 L733.5,607 L723.5,597 L586,597 A2.5,2.5 0 0 0 583.5,599.5 " fill="#F1F1F1" style="stroke:#181818;stroke-width:0.5;"/><path d="M723.5,597 L723.5,604.5 A2.5,2.5 0 0 0 726,607 L733.5,607 " fill="#F1F1F1" style="stroke:#181818;stroke-width:0.5;"/><text fill="#000000" font-family="sans-serif" font-size="14" lengthAdjust="spacing" textLength="130" x="593.5" y="619.9951">EntityIdentifier.pl</text></g><!--MD5=[872c1e38de0e0b81d2b44d0a4342b82a]
class Lifecycle--><g id="elem_Lifecycle"><rect codeLine="1" fill="#F1F1F1" height="72.5625" id="Lifecycle" rx="2.5" ry="2.5" style="stroke:#181818;stroke-width:0.5;" width="529" x="57" y="7"/><ellipse cx="285.25" cy="27.1328" fill="#ADD1B2" rx="11" ry="11" style="stroke:#181818;stroke-width:1.0;"/><path d="M287.5938,22.8047 C286.6563,22.3672 286.0625,22.2266 285.1875,22.2266 C282.5625,22.2266 280.5625,24.3047 280.5625,27.0234 L280.5625,28.1484 C280.5625,30.7266 282.6719,32.6172 285.5625,32.6172 C286.7813,32.6172 287.9375,32.3203 288.6875,31.7734 C289.2656,31.3672 289.5938,30.9141 289.5938,30.5234 C289.5938,30.0703 289.2031,29.6797 288.7344,29.6797 C288.5156,29.6797 288.3125,29.7578 288.125,29.9453 C287.6719,30.4297 287.6719,30.4297 287.4844,30.5234 C287.0625,30.7891 286.375,30.9141 285.6094,30.9141 C283.5625,30.9141 282.2656,29.8203 282.2656,28.1172 L282.2656,27.0234 C282.2656,25.2422 283.5156,23.9297 285.25,23.9297 C285.8281,23.9297 286.4375,24.0859 286.9063,24.3359 C287.3906,24.6172 287.5625,24.8359 287.6563,25.2422 C287.7188,25.6484 287.75,25.7734 287.8906,25.8984 C288.0313,26.0391 288.2656,26.1484 288.4844,26.1484 C288.75,26.1484 289.0156,26.0078 289.1875,25.7891 C289.2969,25.6328 289.3281,25.4453 289.3281,25.0234 L289.3281,23.6016 C289.3281,23.1641 289.3125,23.0391 289.2188,22.8828 C289.0625,22.6172 288.7813,22.4766 288.4844,22.4766 C288.1875,22.4766 287.9844,22.5703 287.7656,22.8828 L287.5938,22.8047 Z " fill="#000000"/><text fill="#000000" font-family="sans-serif" font-size="12" font-style="italic" lengthAdjust="spacing" textLength="51" x="312.25" y="23.1387">«object»</text><text fill="#000000" font-family="sans-serif" font-size="14" lengthAdjust="spacing" textLength="64" x="305.75" y="38.9639">Lifecycle</text><line style="stroke:#181818;stroke-width:0.5;" x1="58" x2="585" y1="47.2656" y2="47.2656"/><line style="stroke:#181818;stroke-width:0.5;" x1="58" x2="585" y1="55.2656" y2="55.2656"/><ellipse cx="68" cy="68.9141" fill="#84BE84" rx="3" ry="3" style="stroke:#038048;stroke-width:1.0;"/><text fill="#000000" font-family="sans-serif" font-size="14" lengthAdjust="spacing" textLength="503" x="77" y="72.2607">entityOneStep(entity: CelestialBody, bodyType: A): (CelestialBody, A)</text></g><!--MD5=[249bb8201cd9812da2e9013839b099f4]
class OperationsOnCelestialBody--><g id="elem_OperationsOnCelestialBody"><rect codeLine="4" fill="#F1F1F1" height="88.8594" id="OperationsOnCelestialBody" rx="2.5" ry="2.5" style="stroke:#181818;stroke-width:0.5;" width="524" x="27.5" y="298"/><ellipse cx="186.25" cy="318.1328" fill="#ADD1B2" rx="11" ry="11" style="stroke:#181818;stroke-width:1.0;"/><path d="M188.5938,313.8047 C187.6563,313.3672 187.0625,313.2266 186.1875,313.2266 C183.5625,313.2266 181.5625,315.3047 181.5625,318.0234 L181.5625,319.1484 C181.5625,321.7266 183.6719,323.6172 186.5625,323.6172 C187.7813,323.6172 188.9375,323.3203 189.6875,322.7734 C190.2656,322.3672 190.5938,321.9141 190.5938,321.5234 C190.5938,321.0703 190.2031,320.6797 189.7344,320.6797 C189.5156,320.6797 189.3125,320.7578 189.125,320.9453 C188.6719,321.4297 188.6719,321.4297 188.4844,321.5234 C188.0625,321.7891 187.375,321.9141 186.6094,321.9141 C184.5625,321.9141 183.2656,320.8203 183.2656,319.1172 L183.2656,318.0234 C183.2656,316.2422 184.5156,314.9297 186.25,314.9297 C186.8281,314.9297 187.4375,315.0859 187.9063,315.3359 C188.3906,315.6172 188.5625,315.8359 188.6563,316.2422 C188.7188,316.6484 188.75,316.7734 188.8906,316.8984 C189.0313,317.0391 189.2656,317.1484 189.4844,317.1484 C189.75,317.1484 190.0156,317.0078 190.1875,316.7891 C190.2969,316.6328 190.3281,316.4453 190.3281,316.0234 L190.3281,314.6016 C190.3281,314.1641 190.3125,314.0391 190.2188,313.8828 C190.0625,313.6172 189.7813,313.4766 189.4844,313.4766 C189.1875,313.4766 188.9844,313.5703 188.7656,313.8828 L188.5938,313.8047 Z " fill="#000000"/><text fill="#000000" font-family="sans-serif" font-size="12" font-style="italic" lengthAdjust="spacing" textLength="51" x="280.25" y="314.1387">«object»</text><text fill="#000000" font-family="sans-serif" font-size="14" lengthAdjust="spacing" textLength="198" x="206.75" y="329.9639">OperationsOnCelestialBody</text><line style="stroke:#181818;stroke-width:0.5;" x1="28.5" x2="550.5" y1="338.2656" y2="338.2656"/><line style="stroke:#181818;stroke-width:0.5;" x1="28.5" x2="550.5" y1="346.2656" y2="346.2656"/><ellipse cx="38.5" cy="359.9141" fill="#84BE84" rx="3" ry="3" style="stroke:#038048;stroke-width:1.0;"/><text fill="#000000" font-family="sans-serif" font-size="14" lengthAdjust="spacing" textLength="315" x="47.5" y="363.2607">updateMass(f: Mass =&gt; Mass): CelestialBody</text><ellipse cx="38.5" cy="376.2109" fill="#84BE84" rx="3" ry="3" style="stroke:#038048;stroke-width:1.0;"/><text fill="#000000" font-family="sans-serif" font-size="14" lengthAdjust="spacing" textLength="498" x="47.5" y="379.5576">updateTemperature(f: Temperature =&gt; Temperature): CelestialBody</text></g><!--MD5=[9b881316fecc2694957007b57cab534e]
class EntityIdentifier--><g id="elem_EntityIdentifier"><rect codeLine="9" fill="#F1F1F1" height="56.2656" id="EntityIdentifier" rx="2.5" ry="2.5" style="stroke:#181818;stroke-width:0.5;" width="143" x="587" y="314.5"/><ellipse cx="602" cy="334.6328" fill="#ADD1B2" rx="11" ry="11" style="stroke:#181818;stroke-width:1.0;"/><path d="M604.3438,330.3047 C603.4063,329.8672 602.8125,329.7266 601.9375,329.7266 C599.3125,329.7266 597.3125,331.8047 597.3125,334.5234 L597.3125,335.6484 C597.3125,338.2266 599.4219,340.1172 602.3125,340.1172 C603.5313,340.1172 604.6875,339.8203 605.4375,339.2734 C606.0156,338.8672 606.3438,338.4141 606.3438,338.0234 C606.3438,337.5703 605.9531,337.1797 605.4844,337.1797 C605.2656,337.1797 605.0625,337.2578 604.875,337.4453 C604.4219,337.9297 604.4219,337.9297 604.2344,338.0234 C603.8125,338.2891 603.125,338.4141 602.3594,338.4141 C600.3125,338.4141 599.0156,337.3203 599.0156,335.6172 L599.0156,334.5234 C599.0156,332.7422 600.2656,331.4297 602,331.4297 C602.5781,331.4297 603.1875,331.5859 603.6563,331.8359 C604.1406,332.1172 604.3125,332.3359 604.4063,332.7422 C604.4688,333.1484 604.5,333.2734 604.6406,333.3984 C604.7813,333.5391 605.0156,333.6484 605.2344,333.6484 C605.5,333.6484 605.7656,333.5078 605.9375,333.2891 C606.0469,333.1328 606.0781,332.9453 606.0781,332.5234 L606.0781,331.1016 C606.0781,330.6641 606.0625,330.5391 605.9688,330.3828 C605.8125,330.1172 605.5313,329.9766 605.2344,329.9766 C604.9375,329.9766 604.7344,330.0703 604.5156,330.3828 L604.3438,330.3047 Z " fill="#000000"/><text fill="#000000" font-family="sans-serif" font-size="12" font-style="italic" lengthAdjust="spacing" textLength="51" x="646" y="330.6387">«object»</text><text fill="#000000" font-family="sans-serif" font-size="14" lengthAdjust="spacing" textLength="111" x="616" y="346.4639">EntityIdentifier</text><line style="stroke:#181818;stroke-width:0.5;" x1="588" x2="729" y1="354.7656" y2="354.7656"/><line style="stroke:#181818;stroke-width:0.5;" x1="588" x2="729" y1="362.7656" y2="362.7656"/></g><!--MD5=[58a653bf1d29d05fb6dbc1b39e3643f3]
class Scala2P--><g id="elem_Scala2P"><rect codeLine="10" fill="#F1F1F1" height="56.2656" id="Scala2P" rx="2.5" ry="2.5" style="stroke:#181818;stroke-width:0.5;" width="86" x="615.5" y="464"/><ellipse cx="630.5" cy="484.1328" fill="#ADD1B2" rx="11" ry="11" style="stroke:#181818;stroke-width:1.0;"/><path d="M632.8438,479.8047 C631.9063,479.3672 631.3125,479.2266 630.4375,479.2266 C627.8125,479.2266 625.8125,481.3047 625.8125,484.0234 L625.8125,485.1484 C625.8125,487.7266 627.9219,489.6172 630.8125,489.6172 C632.0313,489.6172 633.1875,489.3203 633.9375,488.7734 C634.5156,488.3672 634.8438,487.9141 634.8438,487.5234 C634.8438,487.0703 634.4531,486.6797 633.9844,486.6797 C633.7656,486.6797 633.5625,486.7578 633.375,486.9453 C632.9219,487.4297 632.9219,487.4297 632.7344,487.5234 C632.3125,487.7891 631.625,487.9141 630.8594,487.9141 C628.8125,487.9141 627.5156,486.8203 627.5156,485.1172 L627.5156,484.0234 C627.5156,482.2422 628.7656,480.9297 630.5,480.9297 C631.0781,480.9297 631.6875,481.0859 632.1563,481.3359 C632.6406,481.6172 632.8125,481.8359 632.9063,482.2422 C632.9688,482.6484 633,482.7734 633.1406,482.8984 C633.2813,483.0391 633.5156,483.1484 633.7344,483.1484 C634,483.1484 634.2656,483.0078 634.4375,482.7891 C634.5469,482.6328 634.5781,482.4453 634.5781,482.0234 L634.5781,480.6016 C634.5781,480.1641 634.5625,480.0391 634.4688,479.8828 C634.3125,479.6172 634.0313,479.4766 633.7344,479.4766 C633.4375,479.4766 633.2344,479.5703 633.0156,479.8828 L632.8438,479.8047 Z " fill="#000000"/><text fill="#000000" font-family="sans-serif" font-size="12" font-style="italic" lengthAdjust="spacing" textLength="51" x="646" y="480.1387">«object»</text><text fill="#000000" font-family="sans-serif" font-size="14" lengthAdjust="spacing" textLength="54" x="644.5" y="495.9639">Scala2P</text><line style="stroke:#181818;stroke-width:0.5;" x1="616.5" x2="700.5" y1="504.2656" y2="504.2656"/><line style="stroke:#181818;stroke-width:0.5;" x1="616.5" x2="700.5" y1="512.2656" y2="512.2656"/></g><!--MD5=[5b15ca8bbd0cabe0f85bd6370c841313]
class LifecycleRules--><g id="elem_LifecycleRules"><rect codeLine="13" fill="#F1F1F1" height="64.2969" id="LifecycleRules" rx="2.5" ry="2.5" style="stroke:#181818;stroke-width:0.5;" width="629" x="7" y="157"/><ellipse cx="266.25" cy="173" fill="#ADD1B2" rx="11" ry="11" style="stroke:#181818;stroke-width:1.0;"/><path d="M268.5938,168.6719 C267.6563,168.2344 267.0625,168.0938 266.1875,168.0938 C263.5625,168.0938 261.5625,170.1719 261.5625,172.8906 L261.5625,174.0156 C261.5625,176.5938 263.6719,178.4844 266.5625,178.4844 C267.7813,178.4844 268.9375,178.1875 269.6875,177.6406 C270.2656,177.2344 270.5938,176.7813 270.5938,176.3906 C270.5938,175.9375 270.2031,175.5469 269.7344,175.5469 C269.5156,175.5469 269.3125,175.625 269.125,175.8125 C268.6719,176.2969 268.6719,176.2969 268.4844,176.3906 C268.0625,176.6563 267.375,176.7813 266.6094,176.7813 C264.5625,176.7813 263.2656,175.6875 263.2656,173.9844 L263.2656,172.8906 C263.2656,171.1094 264.5156,169.7969 266.25,169.7969 C266.8281,169.7969 267.4375,169.9531 267.9063,170.2031 C268.3906,170.4844 268.5625,170.7031 268.6563,171.1094 C268.7188,171.5156 268.75,171.6406 268.8906,171.7656 C269.0313,171.9063 269.2656,172.0156 269.4844,172.0156 C269.75,172.0156 270.0156,171.875 270.1875,171.6563 C270.2969,171.5 270.3281,171.3125 270.3281,170.8906 L270.3281,169.4688 C270.3281,169.0313 270.3125,168.9063 270.2188,168.75 C270.0625,168.4844 269.7813,168.3438 269.4844,168.3438 C269.1875,168.3438 268.9844,168.4375 268.7656,168.75 L268.5938,168.6719 Z " fill="#000000"/><text fill="#000000" font-family="sans-serif" font-size="14" lengthAdjust="spacing" textLength="102" x="286.75" y="177.8467">LifecycleRules</text><line style="stroke:#181818;stroke-width:0.5;" x1="8" x2="635" y1="189" y2="189"/><line style="stroke:#181818;stroke-width:0.5;" x1="8" x2="635" y1="197" y2="197"/><ellipse cx="18" cy="210.6484" fill="#84BE84" rx="3" ry="3" style="stroke:#038048;stroke-width:1.0;"/><text fill="#000000" font-family="sans-serif" font-size="14" lengthAdjust="spacing" textLength="603" x="27" y="213.9951">updateMassAndTemperature(entity: CelestialBody, bodyType: A): (CelestialBody, A)</text></g><!--MD5=[57fcb756ec55c62cc4fe2522349d7113]
link EntityIdentifier to Scala2P--><g id="link_EntityIdentifier_Scala2P"><path codeLine="17" d="M658.5,370.554 C658.5,395.426 658.5,432.336 658.5,458.735 " fill="none" id="EntityIdentifier-to-Scala2P" style="stroke:#181818;stroke-width:1.0;"/><polygon fill="#181818" points="658.5,463.868,662.5,454.868,658.5,458.868,654.5,454.868,658.5,463.868" style="stroke:#181818;stroke-width:1.0;"/><text fill="#000000" font-family="sans-serif" font-size="13" lengthAdjust="spacing" textLength="23" x="659.5" y="430.0669">use</text></g><!--MD5=[e5a21e98f36bcfd950d7d491ea8f5943]
link Lifecycle to LifecycleRules--><g id="link_Lifecycle_LifecycleRules"><path codeLine="18" d="M321.5,80.341 C321.5,102.167 321.5,129.967 321.5,151.85 " fill="none" id="Lifecycle-to-LifecycleRules" style="stroke:#181818;stroke-width:1.0;"/><polygon fill="#181818" points="321.5,156.992,325.5,147.992,321.5,151.992,317.5,147.992,321.5,156.992" style="stroke:#181818;stroke-width:1.0;"/><text fill="#000000" font-family="sans-serif" font-size="13" lengthAdjust="spacing" textLength="23" x="322.5" y="123.0669">use</text></g><!--MD5=[4df62b4d0546f9737de7e2f3a8efd011]
link LifecycleRules to EntityIdentifier--><g id="link_LifecycleRules_EntityIdentifier"><path codeLine="19" d="M394.507,221.058 C443.851,242.26 510.357,271.249 568.5,298 C578.344,302.529 588.739,307.436 598.832,312.268 " fill="none" id="LifecycleRules-to-EntityIdentifier" style="stroke:#181818;stroke-width:1.0;"/><polygon fill="#181818" points="603.445,314.481,597.0614,306.981,598.9372,312.3178,593.6003,314.1935,603.445,314.481" style="stroke:#181818;stroke-width:1.0;"/><text fill="#000000" font-family="sans-serif" font-size="13" lengthAdjust="spacing" textLength="23" x="502.5" y="264.0669">use</text></g><!--MD5=[39b8cf8bbde39c342988284c3558ec08]
link LifecycleRules to OperationsOnCelestialBody--><g id="link_LifecycleRules_OperationsOnCelestialBody"><path codeLine="20" d="M314.947,221.024 C310.577,241.714 304.742,269.339 299.762,292.917 " fill="none" id="LifecycleRules-to-OperationsOnCelestialBody" style="stroke:#181818;stroke-width:1.0;"/><polygon fill="#181818" points="298.713,297.883,304.4883,289.9052,299.7474,292.9912,296.6614,288.2502,298.713,297.883" style="stroke:#181818;stroke-width:1.0;"/><text fill="#000000" font-family="sans-serif" font-size="13" lengthAdjust="spacing" textLength="23" x="309.5" y="264.0669">use</text></g><!--MD5=[9a1e23f6712e1a47e40db0913adf72f4]
link Scala2P to EntityIdentifier.pl--><g id="link_Scala2P_EntityIdentifier.pl"><path codeLine="21" d="M658.5,520.155 C658.5,541.6459 658.5,571.3008 658.5,591.4842 " fill="none" id="Scala2P-to-EntityIdentifier.pl" style="stroke:#181818;stroke-width:1.0;"/><polygon fill="#181818" points="658.5,596.6556,662.5,587.6556,658.5,591.6556,654.5,587.6556,658.5,596.6556" style="stroke:#181818;stroke-width:1.0;"/><text fill="#000000" font-family="sans-serif" font-size="13" lengthAdjust="spacing" textLength="37" x="659.5" y="563.0669">query</text></g><!--MD5=[16c9a810628a71f2a73deaf9e96d532c]
@startuml
class Lifecycle << object >> {
+entityOneStep(entity: CelestialBody, bodyType: A): (CelestialBody, A)
}
class OperationsOnCelestialBody << object >> {
+updateMass(f: Mass => Mass): CelestialBody
+updateTemperature(f: Temperature => Temperature): CelestialBody
}

class EntityIdentifier << object >>
class Scala2P << object >>
package EntityIdentifier.pl <<File>> {
}
class LifecycleRules {
+updateMassAndTemperature(entity: CelestialBody, bodyType: A): (CelestialBody, A)
}

EntityIdentifier - -> Scala2P : use
Lifecycle - -> LifecycleRules : use
LifecycleRules - -> EntityIdentifier : use
LifecycleRules - -> OperationsOnCelestialBody : use
Scala2P - -> EntityIdentifier.pl : query
@enduml

PlantUML version 1.2022.13beta2(Unknown compile time)
(GPL source distribution)
Java Runtime: Java(TM) SE Runtime Environment
JVM: Java HotSpot(TM) 64-Bit Server VM
Default Encoding: UTF-8
Language: en
Country: US
--></g></svg>