<?xml version="1.0" encoding="UTF-8" standalone="no"?><svg xmlns="http://www.w3.org/2000/svg" xmlns:xlink="http://www.w3.org/1999/xlink" contentStyleType="text/css" height="550px" preserveAspectRatio="none" style="width:568px;height:550px;background:#FFFFFF;" version="1.1" viewBox="0 0 568 550" width="568px" zoomAndPan="magnify"><defs/><g><!--MD5=[6016b25235c3d762f2fa022dcd5cc380]
cluster galaxy_sim.actors--><g id="cluster_galaxy_sim.actors"><path d="M17.5,6.602 L136.5,6.602 A3.75,3.75 0 0 1 139,9.102 L146,31.6699 L437.5,31.6699 A2.5,2.5 0 0 1 440,34.1699 L440,119.102 A2.5,2.5 0 0 1 437.5,121.602 L17.5,121.602 A2.5,2.5 0 0 1 15,119.102 L15,9.102 A2.5,2.5 0 0 1 17.5,6.602 " fill="none" style="stroke:#000000;stroke-width:1.5;"/><line style="stroke:#000000;stroke-width:1.5;" x1="15" x2="146" y1="31.6699" y2="31.6699"/><text fill="#000000" font-family="sans-serif" font-size="14" font-weight="bold" lengthAdjust="spacing" textLength="118" x="19" y="23.5679">galaxy_sim.actors</text></g><!--MD5=[c41d477ef21da0c9032cbf319c636951]
cluster physics.rigidbody.RigidBody--><g id="cluster_physics.rigidbody.RigidBody"><path d="M356.5,185.102 L548.5,185.102 A3.75,3.75 0 0 1 551,187.602 L558,210.1699 L558.5,210.1699 A2.5,2.5 0 0 1 561,212.6699 L561,297.602 A2.5,2.5 0 0 1 558.5,300.102 L356.5,300.102 A2.5,2.5 0 0 1 354,297.602 L354,187.602 A2.5,2.5 0 0 1 356.5,185.102 " fill="none" style="stroke:#000000;stroke-width:1.5;"/><line style="stroke:#000000;stroke-width:1.5;" x1="354" x2="558" y1="210.1699" y2="210.1699"/><text fill="#000000" font-family="sans-serif" font-size="14" font-weight="bold" lengthAdjust="spacing" textLength="191" x="358" y="202.0679">physics.rigidbody.RigidBody</text></g><!--MD5=[dcfd6951d4b2a697634a3c74876e73fd]
cluster galaxy_sim.model--><g id="cluster_galaxy_sim.model"><path d="M8.5,172.602 L128.5,172.602 A3.75,3.75 0 0 1 131,175.102 L138,197.6699 L327.5,197.6699 A2.5,2.5 0 0 1 330,200.1699 L330,541.102 A2.5,2.5 0 0 1 327.5,543.602 L8.5,543.602 A2.5,2.5 0 0 1 6,541.102 L6,175.102 A2.5,2.5 0 0 1 8.5,172.602 " fill="none" style="stroke:#000000;stroke-width:1.5;"/><line style="stroke:#000000;stroke-width:1.5;" x1="6" x2="138" y1="197.6699" y2="197.6699"/><text fill="#000000" font-family="sans-serif" font-size="14" font-weight="bold" lengthAdjust="spacing" textLength="119" x="10" y="189.5679">galaxy_sim.model</text></g><!--MD5=[d150a8672f0dcefe428e42c10ccabcfb]
class CelestialBodyActor--><g id="elem_CelestialBodyActor"><rect codeLine="3" fill="#F1F1F1" height="61.412" id="CelestialBodyActor" rx="2.5" ry="2.5" style="stroke:#181818;stroke-width:0.5;" width="157" x="266.5" y="44.602"/><ellipse cx="281.5" cy="67.308" fill="#ADD1B2" rx="11" ry="11" style="stroke:#181818;stroke-width:1.0;"/><path d="M281.6094,62.5892 Q280.6875,62.5892 279.9531,62.9017 Q279.2344,63.2142 278.7344,63.808 Q278.2344,64.3861 277.9531,65.2611 Q277.6875,66.1361 277.6875,67.2299 Q277.6875,68.6674 278.125,69.7142 Q278.5781,70.7611 279.4219,71.308 Q280.2813,71.8549 281.5938,71.8549 Q282.375,71.8549 283.0625,71.7299 Q283.7656,71.5892 284.7656,71.2767 L284.7656,73.1517 Q283.9063,73.4799 283.1406,73.6049 Q282.3906,73.7299 281.375,73.7299 Q279.4531,73.7299 278.1406,72.933 Q276.8438,72.1205 276.1875,70.6517 Q275.5313,69.1674 275.5313,67.1986 Q275.5313,65.7767 275.9219,64.6049 Q276.3281,63.4174 277.1094,62.5424 Q277.8906,61.6674 279.0313,61.1986 Q280.1719,60.7142 281.6406,60.7142 Q282.5938,60.7142 283.4844,60.9174 Q284.3906,61.1049 285.3281,61.5736 L284.5,63.3549 Q283.7188,62.9799 283.0625,62.7924 Q282.4063,62.5892 281.6094,62.5892 Z " fill="#000000"/><text fill="#000000" font-family="sans-serif" font-size="12" font-style="italic" lengthAdjust="spacing" textLength="44" x="336" y="62.4301">«object»</text><text fill="#000000" font-family="sans-serif" font-size="14" lengthAdjust="spacing" textLength="125" x="295.5" y="80.912">CelestialBodyActor</text><line style="stroke:#181818;stroke-width:0.5;" x1="267.5" x2="422.5" y1="90.014" y2="90.014"/><line style="stroke:#181818;stroke-width:0.5;" x1="267.5" x2="422.5" y1="98.014" y2="98.014"/></g><!--MD5=[c0d7be9562a5d946cc96fd2495168446]
class SimulationManagerActor--><g id="elem_SimulationManagerActor"><rect codeLine="4" fill="#F1F1F1" height="61.412" id="SimulationManagerActor" rx="2.5" ry="2.5" style="stroke:#181818;stroke-width:0.5;" width="200" x="31" y="44.602"/><ellipse cx="46" cy="67.308" fill="#ADD1B2" rx="11" ry="11" style="stroke:#181818;stroke-width:1.0;"/><path d="M46.1094,62.5892 Q45.1875,62.5892 44.4531,62.9017 Q43.7344,63.2142 43.2344,63.808 Q42.7344,64.3861 42.4531,65.2611 Q42.1875,66.1361 42.1875,67.2299 Q42.1875,68.6674 42.625,69.7142 Q43.0781,70.7611 43.9219,71.308 Q44.7813,71.8549 46.0938,71.8549 Q46.875,71.8549 47.5625,71.7299 Q48.2656,71.5892 49.2656,71.2767 L49.2656,73.1517 Q48.4063,73.4799 47.6406,73.6049 Q46.8906,73.7299 45.875,73.7299 Q43.9531,73.7299 42.6406,72.933 Q41.3438,72.1205 40.6875,70.6517 Q40.0313,69.1674 40.0313,67.1986 Q40.0313,65.7767 40.4219,64.6049 Q40.8281,63.4174 41.6094,62.5424 Q42.3906,61.6674 43.5313,61.1986 Q44.6719,60.7142 46.1406,60.7142 Q47.0938,60.7142 47.9844,60.9174 Q48.8906,61.1049 49.8281,61.5736 L49,63.3549 Q48.2188,62.9799 47.5625,62.7924 Q46.9063,62.5892 46.1094,62.5892 Z " fill="#000000"/><text fill="#000000" font-family="sans-serif" font-size="12" font-style="italic" lengthAdjust="spacing" textLength="44" x="122" y="62.4301">«object»</text><text fill="#000000" font-family="sans-serif" font-size="14" lengthAdjust="spacing" textLength="168" x="60" y="80.912">SimulationManagerActor</text><line style="stroke:#181818;stroke-width:0.5;" x1="32" x2="230" y1="90.014" y2="90.014"/><line style="stroke:#181818;stroke-width:0.5;" x1="32" x2="230" y1="98.014" y2="98.014"/></g><!--MD5=[04ca7948c1a7067ab15a2ea2d9841bbd]
class CircularEntity--><g id="elem_CircularEntity"><rect codeLine="8" fill="#F1F1F1" height="61.412" id="CircularEntity" rx="2.5" ry="2.5" style="stroke:#181818;stroke-width:0.5;" width="123" x="370.5" y="223.102"/><ellipse cx="385.5" cy="245.808" fill="#ADD1B2" rx="11" ry="11" style="stroke:#181818;stroke-width:1.0;"/><path d="M385.6094,241.0892 Q384.6875,241.0892 383.9531,241.4017 Q383.2344,241.7142 382.7344,242.308 Q382.2344,242.8861 381.9531,243.7611 Q381.6875,244.6361 381.6875,245.7299 Q381.6875,247.1674 382.125,248.2142 Q382.5781,249.2611 383.4219,249.808 Q384.2813,250.3549 385.5938,250.3549 Q386.375,250.3549 387.0625,250.2299 Q387.7656,250.0892 388.7656,249.7767 L388.7656,251.6517 Q387.9063,251.9799 387.1406,252.1049 Q386.3906,252.2299 385.375,252.2299 Q383.4531,252.2299 382.1406,251.433 Q380.8438,250.6205 380.1875,249.1517 Q379.5313,247.6674 379.5313,245.6986 Q379.5313,244.2767 379.9219,243.1049 Q380.3281,241.9174 381.1094,241.0424 Q381.8906,240.1674 383.0313,239.6986 Q384.1719,239.2142 385.6406,239.2142 Q386.5938,239.2142 387.4844,239.4174 Q388.3906,239.6049 389.3281,240.0736 L388.5,241.8549 Q387.7188,241.4799 387.0625,241.2924 Q386.4063,241.0892 385.6094,241.0892 Z " fill="#000000"/><text fill="#000000" font-family="sans-serif" font-size="12" font-style="italic" lengthAdjust="spacing" textLength="35" x="427.5" y="240.9301">«trait»</text><text fill="#000000" font-family="sans-serif" font-size="14" lengthAdjust="spacing" textLength="91" x="399.5" y="259.412">CircularEntity</text><line style="stroke:#181818;stroke-width:0.5;" x1="371.5" x2="492.5" y1="268.514" y2="268.514"/><line style="stroke:#181818;stroke-width:0.5;" x1="371.5" x2="492.5" y1="276.514" y2="276.514"/></g><!--MD5=[e36a4c0f7055b067b077b74a1222e806]
class Simulation--><g id="elem_Simulation"><rect codeLine="12" fill="#F1F1F1" height="86.1358" id="Simulation" rx="2.5" ry="2.5" style="stroke:#181818;stroke-width:0.5;" width="104" x="89" y="210.602"/><ellipse cx="104" cy="226.602" fill="#ADD1B2" rx="11" ry="11" style="stroke:#181818;stroke-width:1.0;"/><path d="M104.1094,221.8832 Q103.1875,221.8832 102.4531,222.1957 Q101.7344,222.5082 101.2344,223.102 Q100.7344,223.6801 100.4531,224.5551 Q100.1875,225.4301 100.1875,226.5239 Q100.1875,227.9614 100.625,229.0082 Q101.0781,230.0551 101.9219,230.602 Q102.7813,231.1489 104.0938,231.1489 Q104.875,231.1489 105.5625,231.0239 Q106.2656,230.8832 107.2656,230.5707 L107.2656,232.4457 Q106.4063,232.7739 105.6406,232.8989 Q104.8906,233.0239 103.875,233.0239 Q101.9531,233.0239 100.6406,232.227 Q99.3438,231.4145 98.6875,229.9457 Q98.0313,228.4614 98.0313,226.4926 Q98.0313,225.0707 98.4219,223.8989 Q98.8281,222.7114 99.6094,221.8364 Q100.3906,220.9614 101.5313,220.4926 Q102.6719,220.0082 104.1406,220.0082 Q105.0938,220.0082 105.9844,220.2114 Q106.8906,220.3989 107.8281,220.8676 L107,222.6489 Q106.2188,222.2739 105.5625,222.0864 Q104.9063,221.8832 104.1094,221.8832 Z " fill="#000000"/><text fill="#000000" font-family="sans-serif" font-size="14" lengthAdjust="spacing" textLength="72" x="118" y="232.034">Simulation</text><line style="stroke:#181818;stroke-width:0.5;" x1="90" x2="192" y1="242.602" y2="242.602"/><ellipse cx="100" cy="257.6359" fill="none" rx="3" ry="3" style="stroke:#038048;stroke-width:1.0;"/><text fill="#000000" font-family="sans-serif" font-size="14" lengthAdjust="spacing" textLength="67" x="109" y="261.5679">deltaTime</text><ellipse cx="100" cy="276.7039" fill="none" rx="3" ry="3" style="stroke:#038048;stroke-width:1.0;"/><text fill="#000000" font-family="sans-serif" font-size="14" lengthAdjust="spacing" textLength="76" x="109" y="280.6358">virtualTime</text><line style="stroke:#181818;stroke-width:0.5;" x1="90" x2="192" y1="288.7378" y2="288.7378"/></g><!--MD5=[0349391645888f4a619a283a71ae13b2]
class CelestialBody--><g id="elem_CelestialBody"><rect codeLine="16" fill="#F1F1F1" height="48" id="CelestialBody" rx="2.5" ry="2.5" style="stroke:#181818;stroke-width:0.5;" width="122" x="192" y="364.102"/><ellipse cx="207" cy="380.102" fill="#ADD1B2" rx="11" ry="11" style="stroke:#181818;stroke-width:1.0;"/><path d="M207.1094,375.3832 Q206.1875,375.3832 205.4531,375.6957 Q204.7344,376.0082 204.2344,376.602 Q203.7344,377.1801 203.4531,378.0551 Q203.1875,378.9301 203.1875,380.0239 Q203.1875,381.4614 203.625,382.5082 Q204.0781,383.5551 204.9219,384.102 Q205.7813,384.6489 207.0938,384.6489 Q207.875,384.6489 208.5625,384.5239 Q209.2656,384.3832 210.2656,384.0707 L210.2656,385.9457 Q209.4063,386.2739 208.6406,386.3989 Q207.8906,386.5239 206.875,386.5239 Q204.9531,386.5239 203.6406,385.727 Q202.3438,384.9145 201.6875,383.4457 Q201.0313,381.9614 201.0313,379.9926 Q201.0313,378.5707 201.4219,377.3989 Q201.8281,376.2114 202.6094,375.3364 Q203.3906,374.4614 204.5313,373.9926 Q205.6719,373.5082 207.1406,373.5082 Q208.0938,373.5082 208.9844,373.7114 Q209.8906,373.8989 210.8281,374.3676 L210,376.1489 Q209.2188,375.7739 208.5625,375.5864 Q207.9063,375.3832 207.1094,375.3832 Z " fill="#000000"/><text fill="#000000" font-family="sans-serif" font-size="14" lengthAdjust="spacing" textLength="90" x="221" y="385.534">CelestialBody</text><line style="stroke:#181818;stroke-width:0.5;" x1="193" x2="313" y1="396.102" y2="396.102"/><line style="stroke:#181818;stroke-width:0.5;" x1="193" x2="313" y1="404.102" y2="404.102"/></g><!--MD5=[d4eea0a2640b0744e449422abbb6da5e]
class Boundary--><g id="elem_Boundary"><rect codeLine="17" fill="#F1F1F1" height="61.412" id="Boundary" rx="2.5" ry="2.5" style="stroke:#181818;stroke-width:0.5;" width="97" x="22.5" y="357.602"/><ellipse cx="37.5" cy="380.308" fill="#ADD1B2" rx="11" ry="11" style="stroke:#181818;stroke-width:1.0;"/><path d="M37.6094,375.5892 Q36.6875,375.5892 35.9531,375.9017 Q35.2344,376.2142 34.7344,376.808 Q34.2344,377.3861 33.9531,378.2611 Q33.6875,379.1361 33.6875,380.2299 Q33.6875,381.6674 34.125,382.7142 Q34.5781,383.7611 35.4219,384.308 Q36.2813,384.8549 37.5938,384.8549 Q38.375,384.8549 39.0625,384.7299 Q39.7656,384.5892 40.7656,384.2767 L40.7656,386.1517 Q39.9063,386.4799 39.1406,386.6049 Q38.3906,386.7299 37.375,386.7299 Q35.4531,386.7299 34.1406,385.933 Q32.8438,385.1205 32.1875,383.6517 Q31.5313,382.1674 31.5313,380.1986 Q31.5313,378.7767 31.9219,377.6049 Q32.3281,376.4174 33.1094,375.5424 Q33.8906,374.6674 35.0313,374.1986 Q36.1719,373.7142 37.6406,373.7142 Q38.5938,373.7142 39.4844,373.9174 Q40.3906,374.1049 41.3281,374.5736 L40.5,376.3549 Q39.7188,375.9799 39.0625,375.7924 Q38.4063,375.5892 37.6094,375.5892 Z " fill="#000000"/><text fill="#000000" font-family="sans-serif" font-size="12" font-style="italic" lengthAdjust="spacing" textLength="35" x="66.5" y="375.4301">«trait»</text><text fill="#000000" font-family="sans-serif" font-size="14" lengthAdjust="spacing" textLength="65" x="51.5" y="393.912">Boundary</text><line style="stroke:#181818;stroke-width:0.5;" x1="23.5" x2="118.5" y1="403.014" y2="403.014"/><line style="stroke:#181818;stroke-width:0.5;" x1="23.5" x2="118.5" y1="411.014" y2="411.014"/></g><!--MD5=[eb41b0c3f5bc142dc50ad5d618937648]
class CelestialBodyType--><g id="elem_CelestialBodyType"><rect codeLine="18" fill="#F1F1F1" height="48" id="CelestialBodyType" rx="2.5" ry="2.5" style="stroke:#181818;stroke-width:0.5;" width="154" x="101" y="479.602"/><ellipse cx="116" cy="495.602" fill="#EB937F" rx="11" ry="11" style="stroke:#181818;stroke-width:1.0;"/><path d="M119.4688,502.102 L112.1563,502.102 L112.1563,489.4301 L119.4688,489.4301 L119.4688,491.3051 L114.2031,491.3051 L114.2031,494.5707 L119.1563,494.5707 L119.1563,496.4301 L114.2031,496.4301 L114.2031,500.227 L119.4688,500.227 L119.4688,502.102 Z " fill="#000000"/><text fill="#000000" font-family="sans-serif" font-size="14" lengthAdjust="spacing" textLength="122" x="130" y="501.034">CelestialBodyType</text><line style="stroke:#181818;stroke-width:0.5;" x1="102" x2="254" y1="511.602" y2="511.602"/><line style="stroke:#181818;stroke-width:0.5;" x1="102" x2="254" y1="519.602" y2="519.602"/></g><!--MD5=[55299604e1b87194e9a1a1c01c081110]
reverse link CircularEntity to CelestialBody--><g id="link_CircularEntity_CelestialBody"><path d="M375.74,296.252 C345.49,318.642 309.34,345.402 284.14,364.052 " fill="none" id="CircularEntity-backto-CelestialBody" style="stroke:#181818;stroke-width:1.0;"/><polygon fill="none" points="371.59,290.612,391.83,284.342,379.92,301.862,371.59,290.612" style="stroke:#181818;stroke-width:1.0;"/></g><!--MD5=[adc0274c49ff37a4d854dc1867594035]
reverse link Simulation to CelestialBody--><g id="link_Simulation_CelestialBody"><path codeLine="21" d="M185.33,307.042 C202.05,326.832 220.23,348.342 233.54,364.072 " fill="none" id="Simulation-backto-CelestialBody" style="stroke:#181818;stroke-width:1.0;"/><polygon fill="#181818" points="176.75,296.892,177.5656,304.0568,184.493,306.0596,183.6774,298.8948,176.75,296.892" style="stroke:#181818;stroke-width:1.0;"/><text fill="#000000" font-family="sans-serif" font-size="13" lengthAdjust="spacing" textLength="7" x="174.6883" y="318.763">1</text><text fill="#000000" font-family="sans-serif" font-size="13" lengthAdjust="spacing" textLength="7" x="220.3695" y="352.3214">*</text></g><!--MD5=[b1380386dd5fca43dd2fcbc0da548bd5]
link Simulation to CelestialBodyType--><g id="link_Simulation_CelestialBodyType"><path codeLine="22" d="M147.28,296.672 C154.83,347.272 167.29,430.802 173.78,474.292 " fill="none" id="Simulation-to-CelestialBodyType" style="stroke:#181818;stroke-width:1.0;stroke-dasharray:7.0,7.0;"/><polygon fill="#181818" points="174.54,479.402,177.158,469.9075,173.7969,474.4575,169.2468,471.0964,174.54,479.402" style="stroke:#181818;stroke-width:1.0;"/></g><!--MD5=[b0654390dc9a73feee504eca2d733c29]
reverse link Simulation to Boundary--><g id="link_Simulation_Boundary"><path codeLine="23" d="M112.4,308.742 C103.62,325.352 94.29,343.022 86.71,357.362 " fill="none" id="Simulation-backto-Boundary" style="stroke:#181818;stroke-width:1.0;"/><polygon fill="#181818" points="118.66,296.892,112.3214,300.3304,113.0575,307.5038,119.396,304.0654,118.66,296.892" style="stroke:#181818;stroke-width:1.0;"/><text fill="#000000" font-family="sans-serif" font-size="13" lengthAdjust="spacing" textLength="7" x="107.7033" y="318.763">1</text><text fill="#000000" font-family="sans-serif" font-size="13" lengthAdjust="spacing" textLength="7" x="82.3809" y="345.7074">1</text></g><!--MD5=[9149c59f7f060024a9682f747fc77d8a]
link CelestialBody to CelestialBodyType--><g id="link_CelestialBody_CelestialBodyType"><path codeLine="24" d="M237.64,412.342 C224.7,431.932 206.27,459.812 193.34,479.392 " fill="none" id="CelestialBody-CelestialBodyType" style="stroke:#181818;stroke-width:1.0;"/><text fill="#000000" font-family="sans-serif" font-size="13" lengthAdjust="spacing" textLength="7" x="226.2786" y="433.8918">*</text><text fill="#000000" font-family="sans-serif" font-size="13" lengthAdjust="spacing" textLength="7" x="189.522" y="467.5931">1</text></g><!--MD5=[7c0fb23ac79bc4bf1ed6d6da17fe0a1d]
link CelestialBodyActor to CelestialBody--><g id="link_CelestialBodyActor_CelestialBody"><path codeLine="26" d="M336.26,105.642 C318.59,165.392 278.79,299.922 261.4,358.712 " fill="none" id="CelestialBodyActor-to-CelestialBody" style="stroke:#181818;stroke-width:1.0;"/><polygon fill="#181818" points="259.89,363.822,266.2767,356.3246,261.307,359.027,258.6047,354.0574,259.89,363.822" style="stroke:#181818;stroke-width:1.0;"/><text fill="#000000" font-family="sans-serif" font-size="13" lengthAdjust="spacing" textLength="21" x="319" y="258.999">use</text><text fill="#000000" font-family="sans-serif" font-size="13" lengthAdjust="spacing" textLength="7" x="326.5825" y="128.1111">1</text><text fill="#000000" font-family="sans-serif" font-size="13" lengthAdjust="spacing" textLength="7" x="253.7587" y="352.4096">1</text></g><!--MD5=[bddaa596ebdfa6d18565d9fcab65e3d9]
link SimulationManagerActor to Simulation--><g id="link_SimulationManagerActor_Simulation"><path codeLine="27" d="M132.67,105.642 C134.21,132.842 136.53,173.662 138.32,205.382 " fill="none" id="SimulationManagerActor-to-Simulation" style="stroke:#181818;stroke-width:1.0;"/><polygon fill="#181818" points="138.61,210.392,142.0885,201.1779,138.3239,205.4002,134.1016,201.6356,138.61,210.392" style="stroke:#181818;stroke-width:1.0;"/><text fill="#000000" font-family="sans-serif" font-size="13" lengthAdjust="spacing" textLength="21" x="136" y="152.499">use</text><text fill="#000000" font-family="sans-serif" font-size="13" lengthAdjust="spacing" textLength="7" x="125.2697" y="128.1111">1</text><text fill="#000000" font-family="sans-serif" font-size="13" lengthAdjust="spacing" textLength="7" x="130.6345" y="198.7717">1</text></g><!--MD5=[90832deecc4d8f01238e227dbd6c35a2]
@startuml

package galaxy_sim.actors{
  class CelestialBodyActor << object >>
  class SimulationManagerActor << object >>
}

package physics.rigidbody.RigidBody {
  class CircularEntity << trait >>
}

package galaxy_sim.model {
  class Simulation {
    + deltaTime
    + virtualTime
  }
  class CelestialBody extends CircularEntity
  class Boundary << trait >>
  enum CelestialBodyType
}

Simulation "1"*- -"*" CelestialBody
Simulation ..> CelestialBodyType
Simulation "1"*- -"1" Boundary
CelestialBody "*"- -"1" CelestialBodyType

CelestialBodyActor "1"- ->"1" CelestialBody: use
SimulationManagerActor "1"- ->"1" Simulation: use

@enduml

PlantUML version 1.2022.12(Sun Oct 23 20:12:26 CEST 2022)
(GPL source distribution)
Java Runtime: OpenJDK Runtime Environment
JVM: OpenJDK 64-Bit Server VM
Default Encoding: UTF-8
Language: en
Country: US
--></g></svg>